<svg width="666" height="828" viewBox="0 0 666 828" fill="none" xmlns="http://www.w3.org/2000/svg">
<path d="M200 0H209L216 4L223 14L235 37L249 70L261 100L269 117L275 125L285 131L293 133L303 134H358L376 132L385 128L392 122L400 107L415 72L428 43L436 27L444 12L451 3L456 0H465L474 6L483 18L491 34L502 63L525 132L538 168L549 196L562 227L568 238L577 248L587 256L600 265L608 273L614 285L615 290V300L612 313L604 329L595 340L578 357L572 369V383L581 414L583 427V440L581 448L577 456L570 462L561 465H554L544 462L529 456L524 455H510L499 459L493 463L467 489L459 496L445 508L426 522L405 534L389 541L374 546L355 550L346 551H323L302 548L281 542L258 532L240 521L226 511L212 499L202 490L191 479L184 471L175 461L167 457L160 455H142L129 459L116 464H102L93 460L87 453L84 446L83 441V425L86 410L94 383V371L90 361L81 351L69 339L59 325L54 314L51 303V289L54 279L60 271L67 264L83 253L93 244L99 236L107 220L122 184L138 141L164 63L176 32L184 16L191 7L198 1L200 0Z" fill="#FEFEFE"/>
<path d="M166 533H172L180 540L190 550L210 565L225 575L244 585L267 594L289 600L316 604H354L375 601L398 595L423 585L442 575L457 565L473 553L492 534L494 533L510 534L531 539L550 546L571 557L587 568L598 577L610 588L622 601L635 619L644 635L652 652L659 673L664 696L666 713V747L663 763L658 773L649 783L635 792L619 799L601 805L571 812L535 818L505 822L494 823L387 827L348 828H319L252 826L181 823L134 818L91 811L63 804L43 797L24 787L14 778L8 771L3 761L1 752L0 738V718L2 698L7 675L15 651L26 628L36 613L46 600L58 587L71 575L87 563L102 554L118 546L133 540L152 535L166 533Z" fill="#FEFEFE"/>
<path d="M206 227H219L232 231L243 237L253 246L262 256L270 269L277 283L287 313L292 335L296 362L297 371L318 364L324 363H340L357 367L369 372L370 360L374 333L381 305L389 283L397 267L404 256L413 245L422 237L437 229L445 227H459L469 230L479 236L487 244L495 259L499 272L501 283L502 304L500 325L495 347L489 365L481 383L471 400L452 428L442 442L432 455L420 469L401 488L386 499L369 508L353 513L338 515H328L313 513L297 508L281 500L265 488L253 477L244 468L235 457L224 443L210 423L195 400L186 384L178 367L170 343L165 318L164 308V290L167 271L172 256L178 245L184 238L194 231L206 227Z" fill="black"/>
<path d="M457 67L463 68L468 71L472 77L485 112L489 127V138L485 144L479 147H467L455 142L446 135L438 127L435 120V113L447 77L451 70L457 67Z" fill="black"/>
<path d="M205 67L212 68L217 72L221 80L230 110L231 115V122L226 130L217 138L207 144L198 147H186L181 144L178 141L177 138V130L183 107L193 80L198 72L203 68L205 67Z" fill="black"/>
<path d="M435 272L442 273L448 280L452 290L454 301V323L451 337L447 346L441 354L438 356H430L423 348L418 335L416 321V312L418 298L423 284L429 276L435 272Z" fill="#FEFEFE"/>
<path d="M227 272L233 273L239 278L246 292L249 305V329L244 345L238 354L235 356H228L222 352L215 339L212 326V298L216 283L222 275L227 272Z" fill="#FEFEFE"/>
<path d="M315 421H344L367 423L370 424L369 429L362 441L351 453L341 463L335 467L330 466L317 455L305 441L297 428L296 424L303 422L315 421Z" fill="#FEFEFE"/>
</svg>
