<svg width="744" height="661" viewBox="0 0 744 661" fill="none" xmlns="http://www.w3.org/2000/svg">
<path d="M122 215H420L437 216L451 219L460 225L465 233L468 244L469 253L470 279V500L469 581L467 599L462 609L455 615L448 618L433 620H85L68 618L59 614L54 609L49 601L47 595L45 575V263L47 243L50 233L56 224L64 219L71 217L82 216L122 215Z" fill="black"/>
<path d="M182 256L189 257L197 264L203 273L213 297L221 318L226 328L232 333L241 336L266 337L280 336L290 333L296 329L300 324L307 306L318 278L325 265L332 258L337 256L343 257L351 264L359 280L372 316L386 356L397 383L406 400L413 409L428 424L433 432L435 439V449L431 460L427 466L418 476L412 485L411 487V497L418 524V536L415 544L409 549L405 551H395L382 546H373L365 550L354 559L341 571L330 580L318 589L299 599L283 604L270 606H249L233 603L216 597L200 588L190 580L176 568L168 560L158 552L146 546H137L125 551H115L107 546L103 539L102 534V525L106 508L109 498V486L104 478L95 468L89 461L85 451V437L89 427L95 420L108 411L115 403L126 382L138 351L151 314L163 281L171 265L175 260L182 256Z" fill="#FEFEFE"/>
<path d="M50 171H467L479 174L491 180L501 189L508 200L513 212L515 223V600L512 616L507 629L500 640L493 647L482 654L470 659L459 661H53L39 658L27 652L15 641L7 628L3 618L0 603V224L4 208L11 194L21 183L32 176L44 172L50 171ZM122 215L82 216L67 218L57 223L51 231L48 238L46 250L45 263V575L47 595L51 605L55 611L62 616L73 619L85 620H433L448 618L458 613L464 606L467 599L469 581L470 500V279L469 253L467 239L463 229L459 224L451 219L437 216L420 215H122Z" fill="#FEFEFE"/>
<path d="M291 0H304L326 4L454 32L682 83L711 90L723 96L733 105L739 113L743 123L744 127V148L734 198L703 344L684 431L666 511L662 525L654 541L648 549L640 557L628 563L619 565H607L613 544L614 537V508L619 500L624 484L636 435L655 349L675 256L693 170L694 165V147L690 139L684 134L673 129L620 116L603 112L593 108L575 90L565 83L551 76L533 71L511 68L406 67L378 64L340 56L312 50H297L288 54L282 61L278 66L276 67H238L235 62L236 49L241 34L247 24L256 14L267 7L280 2L291 0Z" fill="#FEFEFE"/>
<path d="M150 98H513L530 100L542 104L553 111L561 118L568 129L572 140L573 144L577 249L588 505V538L585 550L579 562L571 572L563 579L551 585L546 584L544 581L543 208L541 194L536 179L530 169L521 158L508 149L499 145L485 142L476 141L110 140L106 136V129L112 117L118 110L129 103L141 99L150 98Z" fill="#FEFEFE"/>
<path d="M181 400L191 401L203 407L213 416L222 429L228 442L232 454L236 477L237 490L251 485L263 484L273 486L284 490V480L288 459L295 438L303 423L314 411L322 405L331 401L335 400H342L350 404L357 412L362 422L365 434L366 444V453L364 469L358 489L350 505L342 519L330 536L318 550L303 565L290 574L277 580L269 582H251L240 579L226 572L216 564L206 555L195 543L183 527L172 509L164 493L158 477L155 462V440L158 426L163 414L172 404L177 401L181 400Z" fill="black"/>
<path d="M335 302H342L348 307L353 317L356 328V340L354 344L350 346H343L331 341L326 337L324 333V321L328 309L333 303L335 302Z" fill="black"/>
<path d="M181 302H187L192 306L197 316L198 320V332L195 338L187 343L179 346H172L167 342L166 340V329L170 316L174 308L181 302Z" fill="black"/>
<path d="M248 521H272L284 523L276 539L269 548L260 555L253 551L246 543L239 531L236 523L238 522L248 521Z" fill="#FEFEFE"/>
<path d="M322 430H328L332 434L335 441L336 448V460L333 472L329 478L326 480L321 479L317 475L314 467L313 461V450L316 437L320 431L322 430Z" fill="#FEFEFE"/>
<path d="M194 430L201 431L205 436L208 447V463L204 476L199 480L193 479L189 474L186 465V444L189 435L194 430Z" fill="#FEFEFE"/>
</svg>
