<svg width="1066" height="955" viewBox="0 0 1066 955" fill="none" xmlns="http://www.w3.org/2000/svg">
<path d="M255 131H266L285 134L298 139L308 145L318 154L327 164L333 174L338 189L341 207V219L338 241L333 256L327 266L321 273L311 279L304 281H296L284 277L275 271L270 265L268 260L269 251L275 242L282 235L286 225V207L283 199L276 191L268 187L265 186H254L244 190L234 199L228 207L224 217L222 228V250L225 264L234 283L241 293L248 301L261 310L273 315L287 318H314L329 314L341 308L352 299L361 286L369 268L374 248L376 229H699L701 231L703 249L708 269L715 285L722 295L727 301L739 310L751 315L763 318L779 319L796 317L810 313L823 306L835 295L844 281L851 266L854 256L855 249V230L852 215L846 203L838 194L828 188L821 186H811L799 192L793 200L790 208L789 212V221L792 231L796 237L804 245L808 253V262L803 270L794 276L785 280L781 281H773L762 277L754 271L746 262L741 251L737 235L736 228V202L739 187L744 173L751 162L760 152L769 144L779 138L794 133L808 131H820L839 134L853 139L864 145L874 153L884 163L894 178L902 198L906 214L907 221V246L904 263L899 280L891 296L884 307L872 320L862 329L849 337L832 345L811 352L806 356L805 410V792L359 794L348 797L339 802L330 810L323 824L321 835V854L324 874L329 888L337 899L345 905L357 909L370 910L382 908L394 902L402 893L406 884L408 876V867L405 855L402 847L407 841L409 840L824 839L834 842L842 849L845 857V880L841 898L836 910L830 920L822 929L809 939L793 947L776 952L752 955H387L366 954L346 950L329 944L317 937L307 929L297 919L287 904L280 888L275 868L272 841V359L270 353L260 350L245 345L224 335L212 326L200 315L189 301L181 287L174 268L170 247V218L174 198L179 183L187 168L198 155L208 147L222 139L236 134L255 131Z" fill="#FEFEFE"/>
<path d="M457 624H473L483 627L494 633L503 642L511 656L516 675L519 704L520 709L528 707L541 700L557 690L579 678L594 674L600 673H613L625 676L641 684L660 694L674 697L689 696L706 692L715 693L720 696L723 702V709L718 718L713 724L703 731L687 739L678 741H658L645 738L622 727L608 720H596L580 728L553 746L536 754L521 757L508 756L498 752L492 748L486 743L479 733L474 720L466 683L464 671L459 672L451 679L440 693L426 717L418 734L413 746L409 751L395 758H383L375 753L371 748L370 745V738L376 717L384 696L392 680L402 665L411 654L426 639L436 632L449 626L457 624Z" fill="#010101"/>
<path d="M386 440H691L701 445L708 453L711 460V471L706 481L698 488L688 491H391L379 488L371 482L366 474L365 470V461L368 453L375 445L382 441L386 440Z" fill="#010101"/>
<path d="M386 342H693L701 346L708 354L711 361V374L707 382L699 389L690 392H390L380 389L372 383L367 374L366 365L369 356L375 348L383 343L386 342Z" fill="#010101"/>
<path d="M390 537H557L565 539L573 544L578 550L581 557V568L578 576L574 581L566 586L559 588H388L378 585L371 580L366 572L365 569V557L370 547L377 541L384 538L390 537Z" fill="#010101"/>
<path d="M0 0H1066V2L2 3L0 4V0Z" fill="#212121"/>
</svg>
