<svg width="752" height="759" viewBox="0 0 752 759" fill="none" xmlns="http://www.w3.org/2000/svg">
<path d="M42 0H710L721 3L732 9L741 18L748 30L751 40L752 48V712L748 728L741 740L731 750L718 757L711 759H41L27 754L16 746L8 736L2 723L0 712V45L3 32L9 21L18 11L27 5L37 1L42 0ZM72 55L63 59L58 64L54 72V611L58 619L66 626L77 628H674L686 626L694 620L698 612V72L693 62L686 57L678 55H72Z" fill="#FEFEFE"/>
<path d="M222 101H229L237 104L241 107V109H243L253 124L268 150L284 177L298 200L307 210L316 214L320 215H431L442 211L450 204L462 185L474 165L502 117L511 106L518 102L521 101H528L536 105L542 113L549 127L556 148L561 171L572 229L579 258L585 278L592 297L599 310L608 320L620 329L629 336L634 344L635 348V364L631 377L625 389L617 399L614 403H612L610 407L603 415L599 423L597 430V438L600 453L608 481L610 501L607 515L601 524L596 527H586L577 523L561 514L557 513H544L531 517L517 524L505 533L491 544L466 564L453 573L439 581L422 589L404 594L391 596H359L339 592L320 585L303 576L286 564L270 551L253 537L234 524L218 516L209 513H197L186 517L173 525L167 527H156L148 520L144 510L143 506V491L147 473L154 447L155 442V430L152 420L145 410L133 397L124 383L119 372L117 363V349L120 340L124 335L142 322L150 315L157 304L163 290L170 269L180 229L191 170L197 143L204 123L211 110L215 105L222 101Z" fill="#FEFEFE"/>
<path d="M252 305H271L285 310L296 317L306 327L315 341L322 355L330 379L336 406L340 432L343 436L350 435L359 431L368 429H385L395 432L403 436L410 435L412 430L416 403L423 374L431 352L440 335L447 326L451 321L460 314L474 307L481 305H499L513 310L523 318L530 325L538 338L543 351L546 364V393L542 413L537 428L527 449L515 468L499 489L487 503L476 515H474V517L466 524L455 534L442 544L424 555L408 562L392 566L384 567H368L354 565L338 560L322 552L304 540L290 528L278 517L265 504L256 493L246 481L235 465L224 447L215 428L209 410L206 396L205 384V373L208 354L212 342L219 329L227 319H229V317L243 308L252 305Z" fill="black"/>
<path d="M68 683H191L199 687L204 693L205 696V707L200 715L190 720H71L63 717L60 715V713H58L55 707L54 700L57 691L63 685L68 683Z" fill="black"/>
<path d="M660 659H668L681 663L689 669L695 678L697 685V700L691 712L683 719L672 723H661L650 719L644 715L638 708L634 699L633 694V687L636 677L641 669H643V667L653 661L660 659Z" fill="black"/>
<path d="M472 345L481 346L487 353L492 365L495 383L494 401L490 416L485 426L479 431H470L465 427L459 415L456 404L455 397V377L459 361L464 351L470 346L472 345Z" fill="#FEFEFE"/>
<path d="M274 345H280L286 349L292 358L296 373L297 380V397L293 416L287 427L282 431H273L267 426L262 416L258 399V376L261 362L267 350L272 346L274 345Z" fill="#FEFEFE"/>
<path d="M341 478H410L413 481L412 488L402 502L391 516L382 526L378 528L371 527L366 522L355 509L343 493L339 487L338 482L341 478Z" fill="#FEFEFE"/>
<path d="M235 176L241 177L247 182L259 205L264 219L263 228L258 234L241 243L232 246L225 245L221 241L218 232V217L226 186L231 178L235 176Z" fill="black"/>
<path d="M513 176L519 177L523 181L527 191L533 214L534 221V229L532 238L528 244L524 246L513 244L494 234L489 228L488 226V217L496 198L503 185L508 179L513 176Z" fill="black"/>
</svg>
