<svg width="733" height="759" viewBox="0 0 733 759" fill="none" xmlns="http://www.w3.org/2000/svg">
<path d="M363 0L372 1L377 7L385 27L395 54L408 90L413 98L419 102L449 110L472 118L501 132L518 142L532 152L546 163L559 175L572 188L581 199L594 216L606 236L615 253L626 281L633 305L637 322L642 332L650 337L680 348L715 362L727 367L733 374L732 381L728 386L699 398L660 413L644 420L638 427L627 464L617 488L606 510L594 529L581 546L572 556L565 564L552 577L541 586L524 599L503 612L484 622L459 632L433 640L419 644L413 648L409 654L393 696L378 736L373 743L370 745H362L356 740L350 726L339 696L328 667L322 652L316 645L309 642L289 637L265 629L241 618L223 608L208 598L204 597L199 602L187 618L173 637L157 658L143 677L129 695L116 712L105 726L92 742L88 747L78 754L68 758L64 759H47L35 755L24 748L16 739L11 729L9 721V708L13 695L19 685L99 605L106 597L151 552L150 545L137 527L126 508L116 489L106 464L98 438L95 428L91 422L83 417L51 405L7 387L1 382L0 380V373L5 368L13 364L59 346L83 337L91 332L95 324L102 294L111 268L120 248L129 231L143 210L154 196L172 176L185 164L199 153L213 143L237 129L259 119L278 112L314 102L320 98L325 88L336 57L355 7L359 2L363 0Z" fill="#FEFEFE"/>
<path d="M363 0L372 1L377 7L385 27L395 54L408 90L413 98L419 102L449 110L472 118L501 132L518 142L532 152L546 163L559 175L572 188L581 199L594 216L606 236L615 253L626 281L633 305L637 322L642 332L650 337L680 348L715 362L727 367L733 374L732 381L728 386L699 398L660 413L644 420L638 427L627 464L617 488L606 510L594 529L581 546L572 556L565 564L552 577L541 586L524 599L503 612L484 622L459 632L433 640L419 644L413 648L409 654L393 696L378 736L373 743L370 745H362L356 740L350 726L339 696L328 667L322 652L316 645L309 642L289 637L265 629L241 618L223 608L208 598L204 597L199 602L187 618L173 637L157 658L143 677L129 695L116 712L105 726L92 742L88 747L78 754L68 758L64 759H47L35 755L24 748L16 739L11 729L9 721V708L13 695L19 685L99 605L106 597L151 552L150 545L137 527L126 508L116 489L106 464L98 438L95 428L91 422L83 417L51 405L7 387L1 382L0 380V373L5 368L13 364L59 346L83 337L91 332L95 324L102 294L111 268L120 248L129 231L143 210L154 196L172 176L185 164L199 153L213 143L237 129L259 119L278 112L314 102L320 98L325 88L336 57L355 7L359 2L363 0ZM347 143L319 147L296 153L274 161L258 169L242 178L225 190L212 201L199 213L192 221L182 233L173 246L164 261L152 286L145 307L140 328L137 352V393L141 421L146 441L153 461L163 482L176 503L187 517L199 531L209 541L220 550L230 558L245 568L263 578L280 586L300 593L318 598L344 602L360 603H373L398 601L420 597L440 591L460 583L476 575L492 566L510 553L520 544L528 537L538 527L547 516L557 503L565 490L577 467L585 446L590 428L594 406L596 387V356L593 330L587 305L580 285L570 264L559 246L547 230L535 216L520 201L509 192L491 179L473 169L452 159L428 151L406 146L383 143H347Z" fill="#FEFEFE"/>
<path d="M347 143H383L406 146L432 152L457 161L481 173L498 184L510 193L524 205L539 220L548 231L559 246L568 261L577 278L585 299L591 320L595 344L596 356V387L593 413L587 440L580 460L568 485L559 500L547 516L534 531L522 543L511 552L498 562L478 574L462 582L443 590L424 596L405 600L390 602L373 603H360L335 601L310 596L291 590L271 582L248 570L233 560L220 550L206 538L196 528L187 517L174 500L161 478L151 456L144 434L139 409L137 393V352L140 328L147 300L155 279L166 257L175 243L187 227L198 215L205 207L215 198L230 186L247 175L265 165L290 155L310 149L331 145L347 143ZM269 194L263 197L257 204L249 223L214 328L206 348L198 364L190 374L175 385L171 391L170 394V408L175 421L181 429L191 439L205 450L216 461L225 472L236 485L247 499L256 510L267 523L276 533L295 552L308 562L321 570L332 575L345 579L355 581H376L394 577L407 572L420 565L431 557L445 545L458 532L465 524L476 511L487 497L505 475L516 462L527 450L538 441L550 430L556 422L561 412L563 404L562 394L558 386L546 376L539 370L532 359L523 340L514 315L500 273L486 230L476 205L468 196L463 194L455 195L447 202L441 212L430 237L416 271L410 282L406 287L396 292L390 293L372 294H358L341 293L331 290L325 286L319 276L309 253L297 224L289 207L281 197L275 194H269Z" fill="black"/>
<path d="M275 354H282L293 358L302 365L309 372L319 386L327 401L334 420L338 436L341 459L352 456L360 454H371L383 457L392 460V451L396 428L404 404L415 383L425 370L433 362L443 356L451 354L462 355L471 360L478 367L484 378L487 390L488 398V415L485 433L479 451L471 467L461 484L448 502L437 516L425 530L416 539L402 549L387 556L373 559H359L343 555L326 546L316 538L299 521L291 511L277 492L266 475L256 457L250 442L246 427L245 420V392L249 376L256 365L264 358L270 355L275 354Z" fill="black"/>
<path d="M270 250H277L282 254L287 264L290 275V288L286 293L274 300L267 302H256L252 299L251 296V289L256 271L263 257L268 251L270 250Z" fill="black"/>
<path d="M455 250H462L468 255L476 271L480 283L481 288V297L476 302H466L455 298L446 292L443 289L442 286V278L446 262L452 252L455 250Z" fill="black"/>
<path d="M344 495H387L394 498L393 504L386 515L378 525L371 532L364 533L356 526L348 517L338 502L339 497L344 495Z" fill="#FEFEFE"/>
<path d="M440 388L446 389L452 397L455 410V428L452 440L447 448L444 450H439L434 445L430 436L428 422L429 407L432 397L436 391L440 388Z" fill="#FEFEFE"/>
<path d="M289 388L295 389L300 395L303 404L304 410V429L301 441L297 447L293 450L287 449L282 443L278 430V407L281 397L285 391L289 388Z" fill="#FEFEFE"/>
</svg>
