<svg width="293" height="99" viewBox="0 0 293 99" fill="none" xmlns="http://www.w3.org/2000/svg">
<path d="M131.331 42.3812C131.331 43.6562 131.631 44.5375 132.231 45.025C132.831 45.5125 133.788 45.7562 135.1 45.7562C135.888 45.7562 136.75 45.7 137.688 45.5875V52C135.925 52.1875 134.463 52.2813 133.3 52.2813C130.3 52.2813 128.05 51.6062 126.55 50.2562C125.088 48.8687 124.356 46.3937 124.356 42.8312V30.1187H119.069V23.875H124.356V16.9562L131.331 14.5937V23.875H137.575V30.1187H131.331V42.3812ZM164.414 23.875H171.389V52H164.414V49.2437C163.102 50.3687 161.658 51.25 160.083 51.8875C158.545 52.4875 156.914 52.7875 155.189 52.7875C152.339 52.7875 149.845 52.15 147.708 50.875C145.57 49.6 143.92 47.8375 142.758 45.5875C141.633 43.3375 141.07 40.8062 141.07 37.9937C141.07 35.1812 141.633 32.65 142.758 30.4C143.92 28.15 145.57 26.3875 147.708 25.1125C149.845 23.8 152.339 23.1437 155.189 23.1437C156.914 23.1437 158.545 23.4625 160.083 24.1C161.658 24.7 163.102 25.5625 164.414 26.6875V23.875ZM156.089 46.0937C157.627 46.0937 159.014 45.7562 160.252 45.0812C161.527 44.3687 162.52 43.3937 163.233 42.1562C163.983 40.9187 164.358 39.5125 164.358 37.9375C164.358 35.575 163.552 33.6437 161.939 32.1437C160.364 30.6437 158.414 29.8937 156.089 29.8937C153.727 29.8937 151.777 30.6625 150.239 32.2C148.739 33.7 147.989 35.6312 147.989 37.9937C147.989 40.3562 148.739 42.3062 150.239 43.8437C151.777 45.3437 153.727 46.0937 156.089 46.0937ZM191.343 23.1437C194.043 23.1437 196.462 23.8187 198.6 25.1687C200.775 26.4812 202.462 28.2625 203.662 30.5125C204.862 32.7625 205.462 35.2562 205.462 37.9937C205.462 38.8937 205.387 39.7187 205.237 40.4687H183.525C184.087 42.4562 185.081 44.0125 186.506 45.1375C187.931 46.225 189.75 46.7687 191.962 46.7687C193.312 46.7687 194.606 46.4687 195.843 45.8687C197.118 45.2687 198.075 44.5 198.712 43.5625L204.056 46.7125C202.743 48.6625 201.037 50.1625 198.937 51.2125C196.875 52.225 194.493 52.7313 191.793 52.7313C188.793 52.7313 186.131 52.0937 183.806 50.8187C181.481 49.5437 179.681 47.7812 178.406 45.5312C177.168 43.2812 176.55 40.75 176.55 37.9375C176.55 35.1625 177.168 32.65 178.406 30.4C179.681 28.15 181.443 26.3875 183.693 25.1125C185.943 23.8 188.493 23.1437 191.343 23.1437ZM198.937 35.0125C198.637 33.2125 197.793 31.8062 196.406 30.7937C195.056 29.7437 193.35 29.2187 191.287 29.2187C189.862 29.2187 188.55 29.4812 187.35 30.0062C186.187 30.5312 185.25 31.2437 184.537 32.1437C183.825 33.0437 183.45 34 183.412 35.0125H198.937ZM231.869 12.625H238.844V52H231.869V49.3C230.594 50.425 229.169 51.2875 227.594 51.8875C226.019 52.4875 224.388 52.7875 222.7 52.7875C219.85 52.7875 217.356 52.15 215.219 50.875C213.081 49.6 211.431 47.8375 210.269 45.5875C209.144 43.3375 208.581 40.8062 208.581 37.9937C208.581 35.1812 209.144 32.65 210.269 30.4C211.431 28.15 213.081 26.3875 215.219 25.1125C217.356 23.8 219.85 23.1437 222.7 23.1437C224.388 23.1437 226 23.4625 227.538 24.1C229.113 24.7 230.556 25.5437 231.869 26.6312V12.625ZM223.6 46.0937C225.138 46.0937 226.525 45.7562 227.763 45.0812C229.038 44.3687 230.031 43.3937 230.744 42.1562C231.494 40.9187 231.869 39.5125 231.869 37.9375C231.869 35.575 231.063 33.6437 229.45 32.1437C227.875 30.6437 225.925 29.8937 223.6 29.8937C221.238 29.8937 219.288 30.6625 217.75 32.2C216.25 33.7 215.5 35.6312 215.5 37.9937C215.5 40.3562 216.25 42.3062 217.75 43.8437C219.288 45.3437 221.238 46.0937 223.6 46.0937ZM266.972 23.875H273.947V52H266.972V49.2437C265.659 50.3687 264.215 51.25 262.64 51.8875C261.103 52.4875 259.472 52.7875 257.747 52.7875C254.897 52.7875 252.403 52.15 250.265 50.875C248.128 49.6 246.478 47.8375 245.315 45.5875C244.19 43.3375 243.628 40.8062 243.628 37.9937C243.628 35.1812 244.19 32.65 245.315 30.4C246.478 28.15 248.128 26.3875 250.265 25.1125C252.403 23.8 254.897 23.1437 257.747 23.1437C259.472 23.1437 261.103 23.4625 262.64 24.1C264.215 24.7 265.659 25.5625 266.972 26.6875V23.875ZM258.647 46.0937C260.184 46.0937 261.572 45.7562 262.809 45.0812C264.084 44.3687 265.078 43.3937 265.79 42.1562C266.54 40.9187 266.915 39.5125 266.915 37.9375C266.915 35.575 266.109 33.6437 264.497 32.1437C262.922 30.6437 260.972 29.8937 258.647 29.8937C256.284 29.8937 254.334 30.6625 252.797 32.2C251.297 33.7 250.547 35.6312 250.547 37.9937C250.547 40.3562 251.297 42.3062 252.797 43.8437C254.334 45.3437 256.284 46.0937 258.647 46.0937ZM287.273 44.0687C287.273 44.6687 287.423 45.1 287.723 45.3625C288.023 45.625 288.491 45.7562 289.129 45.7562C289.616 45.7562 290.198 45.7 290.873 45.5875V52C289.485 52.225 288.191 52.3375 286.991 52.3375C284.816 52.3375 283.148 51.775 281.985 50.65C280.86 49.4875 280.298 47.4437 280.298 44.5187V12.625H287.273V44.0687Z" fill="#E6E8EB"/>
<path d="M129.298 81.5309C129.651 81.5309 130.009 81.6072 130.37 81.7599C130.732 81.9045 131.041 82.1697 131.299 82.5554C131.564 82.9411 131.696 83.4594 131.696 84.1103V87.7144H130.214V84.1103C130.214 83.6603 130.085 83.3389 129.828 83.1461C129.579 82.9452 129.286 82.8447 128.948 82.8447C128.659 82.8447 128.406 82.9331 128.189 83.1099C127.972 83.2786 127.831 83.5519 127.767 83.9295V84.1103V87.7144H126.284V84.1103C126.284 83.6603 126.156 83.3389 125.899 83.1461C125.649 82.9452 125.352 82.8447 125.007 82.8447C124.733 82.8447 124.484 82.9291 124.259 83.0978C124.042 83.2666 123.902 83.5358 123.837 83.9054V87.7144H122.343V81.6876H123.837V82.1577C124.038 81.9648 124.267 81.8121 124.524 81.6996C124.79 81.5871 125.071 81.5309 125.368 81.5309C125.738 81.5309 126.111 81.6112 126.489 81.7719C126.867 81.9327 127.168 82.2019 127.393 82.5795C127.602 82.2822 127.875 82.0331 128.213 81.8322C128.55 81.6313 128.912 81.5309 129.298 81.5309ZM138.605 81.6876H140.1V87.7144H138.605V87.1237C138.324 87.3648 138.015 87.5536 137.677 87.6902C137.348 87.8188 136.998 87.8831 136.628 87.8831C136.018 87.8831 135.483 87.7465 135.025 87.4733C134.567 87.2001 134.214 86.8224 133.965 86.3402C133.724 85.8581 133.603 85.3157 133.603 84.713C133.603 84.1103 133.724 83.5679 133.965 83.0858C134.214 82.6036 134.567 82.226 135.025 81.9527C135.483 81.6715 136.018 81.5309 136.628 81.5309C136.998 81.5309 137.348 81.5992 137.677 81.7358C138.015 81.8644 138.324 82.0492 138.605 82.2902V81.6876ZM136.821 86.4487C137.151 86.4487 137.448 86.3764 137.713 86.2318C137.986 86.0791 138.199 85.8702 138.352 85.605C138.513 85.3398 138.593 85.0385 138.593 84.701C138.593 84.1947 138.42 83.7809 138.075 83.4594C137.737 83.138 137.32 82.9773 136.821 82.9773C136.315 82.9773 135.897 83.142 135.568 83.4715C135.246 83.7929 135.086 84.2068 135.086 84.713C135.086 85.2193 135.246 85.6371 135.568 85.9666C135.897 86.288 136.315 86.4487 136.821 86.4487ZM147.2 79.2769H148.694V87.7144H147.2V87.1358C146.927 87.3769 146.621 87.5617 146.284 87.6902C145.946 87.8188 145.597 87.8831 145.235 87.8831C144.624 87.8831 144.09 87.7465 143.632 87.4733C143.174 87.2001 142.82 86.8224 142.571 86.3402C142.33 85.8581 142.21 85.3157 142.21 84.713C142.21 84.1103 142.33 83.5679 142.571 83.0858C142.82 82.6036 143.174 82.226 143.632 81.9527C144.09 81.6715 144.624 81.5309 145.235 81.5309C145.597 81.5309 145.942 81.5992 146.272 81.7358C146.609 81.8644 146.918 82.0452 147.2 82.2782V79.2769ZM145.428 86.4487C145.757 86.4487 146.055 86.3764 146.32 86.2318C146.593 86.0791 146.806 85.8702 146.959 85.605C147.119 85.3398 147.2 85.0385 147.2 84.701C147.2 84.1947 147.027 83.7809 146.681 83.4594C146.344 83.138 145.926 82.9773 145.428 82.9773C144.922 82.9773 144.504 83.142 144.174 83.4715C143.853 83.7929 143.692 84.2068 143.692 84.713C143.692 85.2193 143.853 85.6371 144.174 85.9666C144.504 86.288 144.922 86.4487 145.428 86.4487ZM153.914 81.5309C154.493 81.5309 155.011 81.6755 155.469 81.9648C155.935 82.2461 156.297 82.6277 156.554 83.1099C156.811 83.592 156.94 84.1264 156.94 84.713C156.94 84.9059 156.924 85.0827 156.891 85.2434H152.239C152.359 85.6693 152.572 86.0027 152.878 86.2438C153.183 86.4769 153.573 86.5934 154.047 86.5934C154.336 86.5934 154.613 86.5291 154.878 86.4005C155.152 86.2719 155.357 86.1072 155.493 85.9063L156.638 86.5813C156.357 86.9992 155.991 87.3206 155.541 87.5456C155.099 87.7626 154.589 87.8711 154.011 87.8711C153.368 87.8711 152.797 87.7344 152.299 87.4612C151.801 87.188 151.415 86.8103 151.142 86.3282C150.877 85.8461 150.744 85.3036 150.744 84.701C150.744 84.1063 150.877 83.5679 151.142 83.0858C151.415 82.6036 151.793 82.226 152.275 81.9527C152.757 81.6715 153.303 81.5309 153.914 81.5309ZM155.541 84.0742C155.477 83.6885 155.296 83.3871 154.999 83.1702C154.71 82.9452 154.344 82.8327 153.902 82.8327C153.597 82.8327 153.315 82.8889 153.058 83.0014C152.809 83.1139 152.608 83.2666 152.456 83.4594C152.303 83.6523 152.223 83.8572 152.215 84.0742H155.541ZM166.978 81.5309C167.589 81.5309 168.123 81.6715 168.581 81.9527C169.039 82.226 169.389 82.6036 169.63 83.0858C169.879 83.5679 170.003 84.1103 170.003 84.713C170.003 85.3157 169.879 85.8581 169.63 86.3402C169.389 86.8224 169.039 87.2001 168.581 87.4733C168.123 87.7465 167.589 87.8831 166.978 87.8831C166.584 87.8831 166.207 87.8068 165.845 87.6541C165.483 87.5014 165.162 87.2885 164.881 87.0152V87.7144H163.386V79.2769H164.881V82.3987C165.162 82.1255 165.483 81.9126 165.845 81.7599C166.215 81.6072 166.592 81.5309 166.978 81.5309ZM166.785 86.4487C167.291 86.4487 167.705 86.288 168.027 85.9666C168.356 85.6371 168.521 85.2193 168.521 84.713C168.521 84.2068 168.356 83.7929 168.027 83.4715C167.705 83.142 167.291 82.9773 166.785 82.9773C166.287 82.9773 165.865 83.138 165.52 83.4594C165.182 83.7809 165.013 84.1947 165.013 84.701C165.013 85.0385 165.09 85.3398 165.242 85.605C165.403 85.8702 165.616 86.0791 165.881 86.2318C166.154 86.3764 166.456 86.4487 166.785 86.4487ZM175.959 81.6876H177.526L175.417 87.7264C175.104 88.5541 174.67 89.1728 174.115 89.5827C173.569 90.0005 172.922 90.1813 172.175 90.1251V88.6786C172.223 88.6867 172.295 88.6907 172.392 88.6907C173.034 88.6907 173.537 88.301 173.898 87.5215L171.246 81.6876H172.85L174.621 85.5206L175.959 81.6876ZM188.363 81.6876H189.858V87.7144H188.363V87.1237C188.082 87.3648 187.772 87.5536 187.435 87.6902C187.105 87.8188 186.756 87.8831 186.386 87.8831C185.775 87.8831 185.241 87.7465 184.783 87.4733C184.325 87.2001 183.971 86.8224 183.722 86.3402C183.481 85.8581 183.361 85.3157 183.361 84.713C183.361 84.1103 183.481 83.5679 183.722 83.0858C183.971 82.6036 184.325 82.226 184.783 81.9527C185.241 81.6715 185.775 81.5309 186.386 81.5309C186.756 81.5309 187.105 81.5992 187.435 81.7358C187.772 81.8644 188.082 82.0492 188.363 82.2902V81.6876ZM186.579 86.4487C186.908 86.4487 187.206 86.3764 187.471 86.2318C187.744 86.0791 187.957 85.8702 188.11 85.605C188.271 85.3398 188.351 85.0385 188.351 84.701C188.351 84.1947 188.178 83.7809 187.833 83.4594C187.495 83.138 187.077 82.9773 186.579 82.9773C186.073 82.9773 185.655 83.142 185.325 83.4715C185.004 83.7929 184.843 84.2068 184.843 84.713C184.843 85.2193 185.004 85.6371 185.325 85.9666C185.655 86.288 186.073 86.4487 186.579 86.4487ZM196.06 81.567L195.951 82.9773C195.903 82.9612 195.819 82.9532 195.698 82.9532C195.2 82.9532 194.786 83.0978 194.457 83.3871C194.135 83.6764 193.975 84.0702 193.975 84.5684V87.7144H192.48V81.6876H193.975V82.7001C194.111 82.3786 194.344 82.1094 194.674 81.8925C195.003 81.6755 195.401 81.567 195.867 81.567H196.06ZM200.547 85.6532C200.547 85.9264 200.611 86.1152 200.74 86.2197C200.868 86.3242 201.073 86.3764 201.354 86.3764C201.523 86.3764 201.708 86.3644 201.909 86.3402V87.7144C201.531 87.7545 201.218 87.7746 200.969 87.7746C200.326 87.7746 199.844 87.63 199.522 87.3407C199.209 87.0434 199.052 86.513 199.052 85.7496V83.0255H197.919V81.6876H199.052V80.205L200.547 79.6987V81.6876H201.885V83.0255H200.547V85.6532ZM204.967 80.6871C204.686 80.6871 204.465 80.6108 204.304 80.4581C204.144 80.3054 204.063 80.0965 204.063 79.8313C204.063 79.5581 204.144 79.3452 204.304 79.1925C204.465 79.0398 204.686 78.9635 204.967 78.9635C205.249 78.9635 205.47 79.0398 205.63 79.1925C205.791 79.3452 205.871 79.5581 205.871 79.8313C205.871 80.0885 205.787 80.2974 205.618 80.4581C205.457 80.6108 205.241 80.6871 204.967 80.6871ZM204.208 87.7144V81.6876H205.703V87.7144H204.208ZM209.419 83.3751C209.419 83.5438 209.512 83.6724 209.697 83.7608C209.889 83.8411 210.191 83.9255 210.601 84.0139C211.067 84.1103 211.456 84.2188 211.77 84.3394C212.083 84.4599 212.352 84.6527 212.577 84.9179C212.81 85.1751 212.927 85.5246 212.927 85.9666C212.927 86.3603 212.806 86.7019 212.565 86.9911C212.332 87.2804 212.019 87.5014 211.625 87.6541C211.231 87.7987 210.801 87.8711 210.335 87.8711C209.701 87.8711 209.154 87.7505 208.696 87.5094C208.246 87.2684 207.913 86.9228 207.696 86.4728L208.925 85.834C209.142 86.3885 209.612 86.6657 210.335 86.6657C210.649 86.6657 210.918 86.6054 211.143 86.4849C211.368 86.3644 211.48 86.1916 211.48 85.9666C211.48 85.7737 211.376 85.6331 211.167 85.5447C210.966 85.4483 210.637 85.3438 210.179 85.2313C209.705 85.1188 209.319 85.0063 209.022 84.8938C208.724 84.7813 208.467 84.6086 208.25 84.3755C208.033 84.1344 207.925 83.817 207.925 83.4233C207.925 83.0376 208.033 82.7041 208.25 82.4228C208.467 82.1336 208.76 81.9126 209.13 81.7599C209.5 81.6072 209.905 81.5309 210.347 81.5309C210.87 81.5309 211.336 81.6394 211.746 81.8563C212.164 82.0733 212.485 82.3827 212.71 82.7844L211.493 83.3992C211.284 82.9492 210.902 82.7242 210.347 82.7242C210.066 82.7242 209.841 82.7844 209.672 82.905C209.504 83.0175 209.419 83.1742 209.419 83.3751ZM217.02 85.6532C217.02 85.9264 217.084 86.1152 217.213 86.2197C217.342 86.3242 217.546 86.3764 217.828 86.3764C217.996 86.3764 218.181 86.3644 218.382 86.3402V87.7144C218.005 87.7545 217.691 87.7746 217.442 87.7746C216.799 87.7746 216.317 87.63 215.996 87.3407C215.682 87.0434 215.525 86.513 215.525 85.7496V83.0255H214.392V81.6876H215.525V80.205L217.02 79.6987V81.6876H218.358V83.0255H217.02V85.6532ZM228.307 80.5425C228.106 80.5184 227.925 80.5063 227.765 80.5063C227.483 80.5063 227.278 80.5586 227.15 80.663C227.021 80.7675 226.957 80.9603 226.957 81.2416V81.6876H228.295V83.0255H226.957V87.7144H225.462V83.0255H224.462V81.6876H225.462V81.1452C225.462 80.3818 225.619 79.8554 225.932 79.5661C226.246 79.2688 226.72 79.1202 227.355 79.1202C227.604 79.1202 227.921 79.1402 228.307 79.1804V80.5425ZM232.864 87.8831C232.293 87.8831 231.763 87.7425 231.273 87.4612C230.79 87.1719 230.405 86.7862 230.115 86.3041C229.834 85.8139 229.694 85.2836 229.694 84.713C229.694 84.1425 229.834 83.6161 230.115 83.134C230.405 82.6438 230.79 82.2581 231.273 81.9769C231.763 81.6876 232.293 81.5429 232.864 81.5429C233.434 81.5429 233.96 81.6876 234.443 81.9769C234.933 82.2581 235.319 82.6438 235.6 83.134C235.889 83.6161 236.034 84.1425 236.034 84.713C236.034 85.2836 235.889 85.8139 235.6 86.3041C235.319 86.7862 234.933 87.1719 234.443 87.4612C233.96 87.7425 233.434 87.8831 232.864 87.8831ZM232.852 86.3885C233.157 86.3885 233.438 86.3161 233.695 86.1715C233.952 86.0188 234.157 85.8139 234.31 85.5568C234.463 85.2996 234.539 85.0184 234.539 84.713C234.539 84.4077 234.463 84.1264 234.31 83.8693C234.157 83.6121 233.952 83.4072 233.695 83.2545C233.438 83.1019 233.157 83.0255 232.852 83.0255C232.546 83.0255 232.265 83.1019 232.008 83.2545C231.751 83.4072 231.546 83.6121 231.393 83.8693C231.248 84.1264 231.176 84.4077 231.176 84.713C231.176 85.0184 231.248 85.2996 231.393 85.5568C231.546 85.8139 231.751 86.0188 232.008 86.1715C232.265 86.3161 232.546 86.3885 232.852 86.3885ZM241.652 81.567L241.544 82.9773C241.496 82.9612 241.411 82.9532 241.291 82.9532C240.793 82.9532 240.379 83.0978 240.049 83.3871C239.728 83.6764 239.567 84.0702 239.567 84.5684V87.7144H238.073V81.6876H239.567V82.7001C239.704 82.3786 239.937 82.1094 240.266 81.8925C240.596 81.6755 240.994 81.567 241.46 81.567H241.652ZM252.642 81.6876H254.137V87.7144H252.642V87.1237C252.361 87.3648 252.051 87.5536 251.714 87.6902C251.384 87.8188 251.035 87.8831 250.665 87.8831C250.054 87.8831 249.52 87.7465 249.062 87.4733C248.604 87.2001 248.25 86.8224 248.001 86.3402C247.76 85.8581 247.64 85.3157 247.64 84.713C247.64 84.1103 247.76 83.5679 248.001 83.0858C248.25 82.6036 248.604 82.226 249.062 81.9527C249.52 81.6715 250.054 81.5309 250.665 81.5309C251.035 81.5309 251.384 81.5992 251.714 81.7358C252.051 81.8644 252.361 82.0492 252.642 82.2902V81.6876ZM250.858 86.4487C251.187 86.4487 251.485 86.3764 251.75 86.2318C252.023 86.0791 252.236 85.8702 252.389 85.605C252.55 85.3398 252.63 85.0385 252.63 84.701C252.63 84.1947 252.457 83.7809 252.112 83.4594C251.774 83.138 251.356 82.9773 250.858 82.9773C250.352 82.9773 249.934 83.142 249.604 83.4715C249.283 83.7929 249.122 84.2068 249.122 84.713C249.122 85.2193 249.283 85.6371 249.604 85.9666C249.934 86.288 250.352 86.4487 250.858 86.4487ZM260.339 81.567L260.23 82.9773C260.182 82.9612 260.098 82.9532 259.977 82.9532C259.479 82.9532 259.065 83.0978 258.736 83.3871C258.414 83.6764 258.254 84.0702 258.254 84.5684V87.7144H256.759V81.6876H258.254V82.7001C258.39 82.3786 258.623 82.1094 258.953 81.8925C259.282 81.6755 259.68 81.567 260.146 81.567H260.339ZM264.826 85.6532C264.826 85.9264 264.89 86.1152 265.019 86.2197C265.147 86.3242 265.352 86.3764 265.633 86.3764C265.802 86.3764 265.987 86.3644 266.188 86.3402V87.7144C265.81 87.7545 265.497 87.7746 265.248 87.7746C264.605 87.7746 264.123 87.63 263.801 87.3407C263.488 87.0434 263.331 86.513 263.331 85.7496V83.0255H262.198V81.6876H263.331V80.205L264.826 79.6987V81.6876H266.164V83.0255H264.826V85.6532ZM269.246 80.6871C268.965 80.6871 268.744 80.6108 268.583 80.4581C268.423 80.3054 268.342 80.0965 268.342 79.8313C268.342 79.5581 268.423 79.3452 268.583 79.1925C268.744 79.0398 268.965 78.9635 269.246 78.9635C269.528 78.9635 269.749 79.0398 269.909 79.1925C270.07 79.3452 270.15 79.5581 270.15 79.8313C270.15 80.0885 270.066 80.2974 269.897 80.4581C269.736 80.6108 269.52 80.6871 269.246 80.6871ZM268.487 87.7144V81.6876H269.982V87.7144H268.487ZM273.698 83.3751C273.698 83.5438 273.791 83.6724 273.976 83.7608C274.168 83.8411 274.47 83.9255 274.88 84.0139C275.346 84.1103 275.735 84.2188 276.049 84.3394C276.362 84.4599 276.631 84.6527 276.856 84.9179C277.089 85.1751 277.206 85.5246 277.206 85.9666C277.206 86.3603 277.085 86.7019 276.844 86.9911C276.611 87.2804 276.298 87.5014 275.904 87.6541C275.51 87.7987 275.08 87.8711 274.614 87.8711C273.98 87.8711 273.433 87.7505 272.975 87.5094C272.525 87.2684 272.192 86.9228 271.975 86.4728L273.204 85.834C273.421 86.3885 273.891 86.6657 274.614 86.6657C274.928 86.6657 275.197 86.6054 275.422 86.4849C275.647 86.3644 275.759 86.1916 275.759 85.9666C275.759 85.7737 275.655 85.6331 275.446 85.5447C275.245 85.4483 274.916 85.3438 274.458 85.2313C273.984 85.1188 273.598 85.0063 273.301 84.8938C273.003 84.7813 272.746 84.6086 272.529 84.3755C272.312 84.1344 272.204 83.817 272.204 83.4233C272.204 83.0376 272.312 82.7041 272.529 82.4228C272.746 82.1336 273.039 81.9126 273.409 81.7599C273.779 81.6072 274.184 81.5309 274.626 81.5309C275.149 81.5309 275.615 81.6394 276.025 81.8563C276.442 82.0733 276.764 82.3827 276.989 82.7844L275.772 83.3992C275.563 82.9492 275.181 82.7242 274.626 82.7242C274.345 82.7242 274.12 82.7844 273.951 82.905C273.783 83.0175 273.698 83.1742 273.698 83.3751ZM281.299 85.6532C281.299 85.9264 281.363 86.1152 281.492 86.2197C281.621 86.3242 281.825 86.3764 282.107 86.3764C282.275 86.3764 282.46 86.3644 282.661 86.3402V87.7144C282.283 87.7545 281.97 87.7746 281.721 87.7746C281.078 87.7746 280.596 87.63 280.275 87.3407C279.961 87.0434 279.804 86.513 279.804 85.7496V83.0255H278.671V81.6876H279.804V80.205L281.299 79.6987V81.6876H282.637V83.0255H281.299V85.6532ZM286.05 83.3751C286.05 83.5438 286.142 83.6724 286.327 83.7608C286.52 83.8411 286.821 83.9255 287.231 84.0139C287.697 84.1103 288.087 84.2188 288.4 84.3394C288.714 84.4599 288.983 84.6527 289.208 84.9179C289.441 85.1751 289.557 85.5246 289.557 85.9666C289.557 86.3603 289.437 86.7019 289.196 86.9911C288.963 87.2804 288.649 87.5014 288.256 87.6541C287.862 87.7987 287.432 87.8711 286.966 87.8711C286.331 87.8711 285.785 87.7505 285.327 87.5094C284.877 87.2684 284.543 86.9228 284.326 86.4728L285.556 85.834C285.773 86.3885 286.243 86.6657 286.966 86.6657C287.279 86.6657 287.549 86.6054 287.774 86.4849C287.999 86.3644 288.111 86.1916 288.111 85.9666C288.111 85.7737 288.007 85.6331 287.798 85.5447C287.597 85.4483 287.267 85.3438 286.809 85.2313C286.335 85.1188 285.949 85.0063 285.652 84.8938C285.355 84.7813 285.098 84.6086 284.881 84.3755C284.664 84.1344 284.555 83.817 284.555 83.4233C284.555 83.0376 284.664 82.7041 284.881 82.4228C285.098 82.1336 285.391 81.9126 285.761 81.7599C286.13 81.6072 286.536 81.5309 286.978 81.5309C287.5 81.5309 287.966 81.6394 288.376 81.8563C288.794 82.0733 289.116 82.3827 289.341 82.7844L288.123 83.3992C287.914 82.9492 287.532 82.7242 286.978 82.7242C286.697 82.7242 286.472 82.7844 286.303 82.905C286.134 83.0175 286.05 83.1742 286.05 83.3751Z" fill="#E6E8EB"/>
<g clip-path="url(#clip0_291_4154)">
<path d="M0 0H99V99H0V0Z" fill="black"/>
<path d="M23.6821 12.166H24.7037L26.4682 12.4446L27.6755 12.909L28.6042 13.4662L29.5329 14.302L30.3688 15.2307L30.926 16.1594L31.3903 17.5525L31.6689 19.2242V20.3386L31.3903 22.3818L30.926 23.7748L30.3688 24.7035L29.8115 25.3536L28.8828 25.9109L28.2327 26.0966H27.4898L26.3753 25.7251L25.5395 25.1679L25.0751 24.6107L24.8894 24.1463L24.9823 23.3105L25.5395 22.4746L26.1896 21.8246L26.5611 20.8958V19.2242L26.2825 18.4812L25.6324 17.7382L24.8894 17.3668L24.6108 17.2739H23.5892L22.6605 17.6454L21.7318 18.4812L21.1746 19.2242L20.8031 20.1529L20.6174 21.1745V23.2176L20.896 24.5178L21.7318 26.2823L22.3819 27.211L23.032 27.954L24.2393 28.7898L25.3538 29.2542L26.6539 29.5328H29.1614L30.5545 29.1613L31.6689 28.6041L32.6905 27.7683L33.5264 26.561L34.2693 24.8893L34.7337 23.0319L34.9194 21.2673H64.9166L65.1023 21.4531L65.2881 23.1247L65.7524 24.9822L66.4025 26.4681L67.0526 27.3968L67.517 27.954L68.6314 28.7898L69.7459 29.2542L70.8603 29.5328L72.3462 29.6257L73.925 29.4399L75.2252 29.0685L76.4325 28.4184L77.547 27.3968L78.3828 26.0966L79.0329 24.7035L79.3115 23.7748L79.4044 23.1247V21.3602L79.1258 19.9671L78.5686 18.8527L77.8256 18.0169L76.8969 17.4596L76.2468 17.2739H75.3181L74.2037 17.8311L73.6464 18.5741L73.3678 19.317L73.275 19.6885V20.5244L73.5536 21.4531L73.925 22.0103L74.668 22.7533L75.0395 23.4962V24.3321L74.5751 25.075L73.7393 25.6322L72.9035 26.0037L72.532 26.0966H71.789L70.7674 25.7251L70.0245 25.1679L69.2815 24.3321L68.8172 23.3105L68.4457 21.8246L68.3528 21.1745V18.7598L68.6314 17.3668L69.0958 16.0666L69.7459 15.045L70.5817 14.1163L71.4175 13.3733L72.3462 12.8161L73.7393 12.3518L75.0395 12.166H76.1539L77.9185 12.4446L79.2187 12.909L80.2402 13.4662L81.1689 14.2092L82.0977 15.1379L83.0264 16.5309L83.7693 18.3883L84.1408 19.8743L84.2337 20.5244V22.8461L83.9551 24.4249L83.4907 26.0037L82.7477 27.4897L82.0977 28.5112L80.9832 29.7185L80.0545 30.5544L78.8472 31.2973L77.2684 32.0403L75.3181 32.6904L74.8537 33.0619L74.7609 38.0769V73.5534L33.3406 73.7392L32.319 74.0178L31.4832 74.4822L30.6474 75.2251L29.9973 76.5253L29.8115 77.5469V79.3114L30.0901 81.1688L30.5545 82.469L31.2975 83.4906L32.0404 84.0478L33.1549 84.4193L34.3622 84.5122L35.4766 84.3264L36.5911 83.7692L37.3341 82.9334L37.7055 82.0975L37.8913 81.3546V80.5187L37.6127 79.4043L37.3341 78.6613L37.7984 78.1041L37.9841 78.0112L76.5254 77.9184L77.4541 78.197L78.1971 78.8471L78.4757 79.59V81.7261L78.1042 83.3977L77.6399 84.5122L77.0826 85.4409L76.3397 86.2767L75.1324 87.2054L73.6464 87.9484L72.0676 88.4127L69.8387 88.6913H35.941L33.9907 88.5985L32.1333 88.227L30.5545 87.6698L29.4401 87.0197L28.5114 86.2767L27.5826 85.348L26.6539 83.9549L26.0038 82.469L25.5395 80.6116L25.2609 78.1041V33.3405L25.0751 32.7833L24.1464 32.5047L22.7534 32.0403L20.8031 31.1116L19.6886 30.2758L18.5742 29.2542L17.5526 27.954L16.8097 26.6538L16.1596 24.8893L15.7881 22.939V20.2458L16.1596 18.3883L16.6239 16.9953L17.3669 15.6022L18.3885 14.3949L19.3172 13.6519L20.6174 12.909L21.9175 12.4446L23.6821 12.166Z" fill="#FEFEFE"/>
<path d="M42.4411 57.9512H43.927L44.8557 58.2298L45.8773 58.787L46.7131 59.6228L47.4561 60.923L47.9204 62.6876L48.199 65.3808L48.2919 65.8452L49.0349 65.6594L50.2422 65.0093L51.7281 64.0806L53.7713 62.9662L55.1643 62.5947L55.7216 62.5018H56.9289L58.0433 62.7804L59.5292 63.5234L61.2938 64.4521L62.594 64.7307L63.987 64.6379L65.5658 64.2664L66.4017 64.3592L66.866 64.6379L67.1446 65.1951V65.8452L66.6803 66.681L66.2159 67.2382L65.2872 67.8883L63.8013 68.6313L62.9655 68.817H61.108L59.9007 68.5384L57.7647 67.5168L56.4645 66.8667H55.3501L53.8641 67.6097L51.3566 69.2814L49.7778 70.0243L48.3848 70.303L47.1775 70.2101L46.2488 69.8386L45.6915 69.4671L45.1343 69.0028L44.4842 68.0741L44.0199 66.8667L43.2769 63.4305L43.0912 62.3161L42.6268 62.409L41.8838 63.0591L40.8623 64.3592L39.5621 66.5881L38.8191 68.1669L38.3548 69.2814L37.9833 69.7457L36.6831 70.3958H35.5686L34.8257 69.9315L34.4542 69.4671L34.3613 69.1885V68.5384L34.9186 66.5881L35.6615 64.6379L36.4045 63.1519L37.3332 61.7589L38.169 60.7373L39.5621 59.3442L40.4908 58.6941L41.6981 58.1369L42.4411 57.9512Z" fill="#010101"/>
<path d="M35.8477 40.863H64.1733L65.102 41.3274L65.7521 42.0704L66.0307 42.7204V43.742L65.5663 44.6707L64.8233 45.3208L63.8946 45.5994H36.3121L35.1976 45.3208L34.4547 44.7636L33.9903 44.0206L33.8975 43.6492V42.8133L34.1761 42.0704L34.8262 41.3274L35.4763 40.9559L35.8477 40.863Z" fill="#010101"/>
<path d="M35.8476 31.7617H64.3589L65.1019 32.1332L65.752 32.8762L66.0306 33.5263V34.7336L65.6591 35.4765L64.9161 36.1266L64.0803 36.4052H36.2191L35.2904 36.1266L34.5475 35.5694L34.0831 34.7336L33.9902 33.8977L34.2688 33.0619L34.8261 32.3189L35.569 31.8546L35.8476 31.7617Z" fill="#010101"/>
<path d="M36.2192 49.8716H51.7286L52.4716 50.0573L53.2145 50.5217L53.6789 51.0789L53.9575 51.729V52.7506L53.6789 53.4935L53.3074 53.9579L52.5644 54.4222L51.9143 54.608H36.0335L35.1048 54.3294L34.4547 53.865L33.9903 53.1221L33.8975 52.8434V51.729L34.3618 50.8003L35.0119 50.2431L35.662 49.9645L36.2192 49.8716Z" fill="#010101"/>
<path d="M0 0H99V0.185741L0.185741 0.278612L0 0.371482V0Z" fill="#212121"/>
</g>
<defs>
<clipPath id="clip0_291_4154">
<rect width="99" height="99" fill="white"/>
</clipPath>
</defs>
</svg>
