<svg width="713" height="776" viewBox="0 0 713 776" fill="none" xmlns="http://www.w3.org/2000/svg">
<path d="M73 0H700L707 2L712 8L713 10V710L709 724L702 737L693 747L685 754L671 761L655 765H642L630 762L618 756L609 749L601 740L594 729L590 718L589 714L588 688L585 679L582 676L579 675H117L94 676L83 677H74V704L79 703L97 702L562 701L564 719L570 737L578 752L587 763L599 775V776H72L56 774L42 769L32 763L21 754L12 742L5 727L2 716L0 695V682L4 678L55 677L58 659L59 636L60 12L63 6L69 1L73 0Z" fill="#FEFEFE"/>
<path d="M73 0H700L707 2L712 8L713 10V710L709 724L702 737L693 747L685 754L671 761L655 765H642L630 762L618 756L609 749L601 740L594 729L590 718L589 714L588 688L585 679L582 676L579 675H117L94 676L83 677H74V704L79 703L97 702L562 701L564 719L570 737L578 752L587 763L599 775V776H72L56 774L42 769L32 763L21 754L12 742L5 727L2 716L0 695V682L4 678L55 677L58 659L59 636L60 12L63 6L69 1L73 0ZM122 54L116 58L112 64V443L111 590V633L115 639L119 641H650L656 638L660 631V64L657 58L652 54H122Z" fill="#FEFEFE"/>
<path d="M122 54H652L658 59L660 64V631L656 638L650 641H119L113 637L111 633V590L112 443V64L116 58L122 54ZM536 103L528 106L522 111L508 138L495 164L485 183L472 208L459 230L451 238L446 241L432 244H340L328 241L320 236L312 227L301 208L288 184L278 165L260 130L250 111L244 106L240 104H229L222 110L214 126L203 156L194 187L183 238L176 282L172 306L167 324L161 334L150 348L145 361L144 366V382L148 395L156 409L170 429L172 436V447L164 474L159 492L158 499V520L161 530L167 537L174 540H183L194 536L207 529L211 528H221L231 532L241 541L256 555L270 567L286 578L307 590L328 600L346 606L367 610L391 611L412 609L433 604L449 598L468 589L485 579L501 568L514 557L524 548L535 537L545 530L551 528H562L571 532L585 539L589 540H598L606 536L611 530L614 522L615 516V502L610 479L602 453L601 448V436L604 428L620 404L627 390L629 382V361L625 350L609 328L605 319L600 297L593 252L582 198L574 168L564 138L555 117L549 107L541 103H536Z" fill="black"/>
<path d="M263 317H280L291 321L303 328L312 336L322 349L330 364L337 383L343 407L349 446L351 451L356 452L366 448L383 445L397 446L411 450L416 452L421 451L424 445L430 404L436 381L442 366L450 351L459 339L466 332L480 322L489 318L493 317H510L520 320L532 327L540 335L547 346L554 362L557 376V407L553 426L546 445L536 465L522 488L509 506L500 517L489 529L473 545L462 554L447 565L429 576L417 581L402 584H368L355 581L336 572L317 559L306 550L286 532L279 524L267 510L254 492L242 473L232 455L224 438L218 418L216 407V376L219 362L224 349L233 335L241 327L253 320L263 317Z" fill="black"/>
<path d="M480 360H488L495 366L500 376L503 387L504 395V413L501 428L495 440L490 444L488 445H480L473 439L468 429L466 419V385L469 373L474 364L480 360Z" fill="#FEFEFE"/>
<path d="M285 360H293L301 367L305 376L307 386V420L304 431L300 439L294 444L292 445H285L279 441L273 431L270 421L269 414V393L272 379L276 369L283 361L285 360Z" fill="#FEFEFE"/>
<path d="M242 179H249L255 184L266 207L272 222L273 226V233L270 238L262 243L251 247L240 249L231 248L225 241L224 238V228L229 200L233 188L240 180L242 179Z" fill="black"/>
<path d="M526 179L534 180L541 188L545 200L550 227V239L546 245L543 248L534 249L518 245L508 241L502 234L501 228L506 213L518 186L522 181L526 179Z" fill="black"/>
<path d="M360 501H413L419 505L420 510L411 525L399 542L391 550L387 551L381 548L374 542L365 529L354 511L353 507L358 502L360 501Z" fill="#FEFEFE"/>
</svg>
