<svg width="773" height="776" viewBox="0 0 773 776" fill="none" xmlns="http://www.w3.org/2000/svg">
<path d="M346 0H425L440 4L448 10L453 18L457 33L461 63L463 74L470 88L486 96L509 106L526 114L532 116H544L554 111L568 100L579 91L594 80L603 76L614 75L624 79L637 90L662 115L669 123L683 137L692 148L697 157L698 159V172L692 184L683 196L674 207L661 223L658 230V244L665 261L674 282L680 297L684 303L691 309L699 312L747 318L757 321L766 329L771 339L773 348V429L770 441L765 450L758 456L745 460L702 465L692 468L683 475L678 483L667 511L659 530L657 541L659 549L666 560L679 575L694 595L699 606V617L693 629L684 639L677 647L631 693L620 700L617 701H606L594 696L582 687L569 676L552 663L545 660H532L517 666L487 679L476 685L471 691H470L469 686L464 599L462 550V525L465 509L470 499L479 489L493 477L505 468L515 460L525 451L535 441L545 428L553 415L561 399L568 380L572 361L573 354L574 333L573 313L570 294L564 273L557 256L548 239L539 226L530 215L515 200L502 190L487 181L468 172L459 169H451L446 172L444 176V306L440 316L431 327L420 337L406 346L395 350L383 351L371 348L359 341L349 333L341 326L333 316L329 308L328 303V250L329 178L326 171L322 169H315L300 174L284 182L269 191L258 200L246 211L237 221L225 238L215 256L207 276L201 300L199 314L198 328V341L200 363L205 384L212 402L222 421L233 436L242 446L248 453L259 462L277 476L287 484L297 493L303 501L307 509L310 524V555L307 621L303 685L302 691L297 686L292 682L275 674L244 661L241 660H228L218 665L205 675L188 689L174 698L166 701H154L144 695L134 686L86 638L78 628L74 621L73 617V606L80 592L90 579L99 568L111 553L114 546V534L108 518L97 491L92 479L85 471L75 466L63 464L27 460L14 456L7 450L2 440L0 431V345L4 334L10 325L16 321L32 317L73 312L82 308L90 301L94 293L104 268L113 248L115 239L114 229L108 219L97 206L86 192L76 177L74 171V158L79 148L90 135L97 128L104 120L135 89L146 80L154 76L158 75H166L177 79L191 89L205 101L218 111L228 116H240L261 107L281 98L295 92L303 85L309 73L311 62L314 36L318 20L323 11L330 5L341 1L346 0Z" fill="#FEFEFE"/>
<path d="M311 724L321 727L346 732L367 734H405L426 732L448 728L461 724L460 734L456 750L451 762L444 770L434 774L424 776H349L333 772L325 767L319 758L314 743L311 728V724Z" fill="#FEFEFE"/>
</svg>
