<svg width="2591" height="861" viewBox="0 0 2591 861" fill="none" xmlns="http://www.w3.org/2000/svg">
<path d="M34.0518 436.5C34.0518 220.281 209.332 45 425.552 45H2173.55C2389.77 45 2565.05 220.281 2565.05 436.5V436.5C2565.05 652.719 2389.77 828 2173.55 828H425.552C209.332 828 34.0518 652.719 34.0518 436.5V436.5Z" fill="black"/>
<path d="M425.846 5.56557C465.3 0.774645 504.702 -1.27286 545.286 0.813847C554.534 1.28572 553.662 4.98862 557.464 5.58754C564.451 6.69367 576.177 2.69806 577.821 2.69806C588.023 2.64714 584.037 9.12831 585.41 9.37793C600.718 12.0092 596.312 4.62695 610.947 3.91757C630.007 2.99203 654.463 4.31257 677.427 4.67565C685.491 4.82082 681.901 9.75487 699.306 9.33948C711.636 9.04909 749.46 3.4255 766.876 9.43287C766.979 11.7013 764.779 14.2057 763.854 16.5467C788.82 7.09235 797.756 7.50715 833.151 9.81191C838.751 10.1749 844.053 6.29066 853.917 7.72444C863.777 9.15942 864.194 15.1471 884.022 15.0745C891.054 15.0344 895.322 10.8118 906.106 10.6304C936.777 10.1043 995.192 15.349 1020.37 15.5305C1069.94 15.8932 1096.91 8.6866 1140.94 11.1907C1144.33 11.3722 1136.88 15.9998 1143.1 16.0908C1149.37 16.1815 1155.9 10.0505 1157.44 9.90529C1174.08 8.3272 1209.25 16.5407 1218.51 15.5469C1241.01 13.1149 1218.84 10.4131 1250.02 9.25159C1279.72 8.14627 1320.71 16.1286 1350.15 17.6893C1384.26 19.503 1395.26 7.90806 1420.95 20.013C1511.16 19.3052 1601.73 18.8722 1692.04 18.2551C1691.79 20.6682 1691.49 23.0822 1691.18 25.4953C1698.32 23.8256 1705.46 22.1535 1712.6 20.5019C1711.53 22.2982 1710.5 24.0963 1709.42 25.8744C1742.97 18.9432 1772.86 15.3676 1812.05 17.2718C1812.82 17.3079 1810.8 22.1193 1811.44 22.2433C1820.27 23.1507 1830.15 19.4495 1837.91 20.3206C1856.66 22.4078 1888.51 32.899 1874.49 20.0679C1918.2 22.7172 1969.58 18.3791 2011.24 20.8645C2029.27 21.935 2034.67 29.5392 2043.3 29.9779C2051.92 30.4129 2047.53 23.8787 2050.59 23.6276C2068.98 22.1758 2099.25 22.4453 2102.44 29.7582C2106.14 26.8371 2110.05 23.8805 2113.8 20.9414C2111.95 27.7702 2151.97 26.4705 2173.55 26.0087C2177.81 25.922 2181.38 25.9309 2183.84 26.0229C2186.7 26.1335 2186.98 29.702 2189.11 29.7424C2212.86 30.447 2219.25 25.6472 2240.1 26.8857C2247.41 27.4806 2235.29 31.5908 2254.02 32.3374C2255.62 32.5209 2255.99 26.3598 2277.88 31.7865C2312.98 39.5382 2378.05 65.507 2411.1 93.4247C2413.81 95.6103 2401.71 94.5266 2415.43 102.536C2420.34 105.538 2420.8 100.266 2431.94 108.886C2475.19 142.674 2509.25 190.332 2539.24 236.869C2533.89 237.405 2519.82 223.144 2536.47 247.262C2539.07 251.173 2541.37 246.06 2542.48 247.864C2551.44 262.671 2554.6 277.521 2562.59 294.341C2564.93 299.315 2568.65 299.458 2571.61 305.79C2575.93 315.224 2572.51 320.854 2577.54 331.759C2585.11 348.801 2590.56 351.205 2585.14 375.332C2588.22 395.59 2589.84 415.995 2590 436.5C2590 436.5 2590 436.5 2590 436.5C2591.54 545.478 2547.05 655.521 2467.4 729.804C2442.89 757.907 2416.91 781.847 2383.22 802.473C2373.18 808.439 2368.44 804.126 2352.87 813.995C2349.62 816.354 2324.66 834.141 2316.2 823.522C2309.01 827.316 2304.17 828.978 2297.73 831.719C2303.33 831.904 2309.12 831.932 2314.57 831.973C2285.94 839.944 2263.47 849.852 2237.38 856.02C2218.21 860.24 2231.27 853.032 2219.47 854.992C2207.73 856.725 2202.12 858.436 2187.16 852.516C2182.49 855.753 2178.31 856.737 2173.55 856.739C2167.28 856.738 2159.92 854.884 2148.13 854.767C2145.97 854.749 2133.5 857.647 2123.07 857.069C2115.57 856.651 2113.35 851.99 2101.44 852.712C2099.49 852.821 2074.31 858.596 2066.29 859.123C2053.81 859.958 2033.97 853.982 2031.55 853.91C1996.47 852.858 1982.94 858.757 1958.03 849.048C1952.99 854.818 1932.2 858.195 1915.41 857.634C1894.19 856.927 1851.64 845.128 1845.84 857.596C1821.28 852.043 1823.95 855.47 1794.83 855.58C1768.32 855.689 1698.14 850.92 1676.66 851.608C1655.19 852.28 1665.65 859.214 1657.12 860.139C1643.16 861.678 1650.7 856.562 1641.15 856.635C1614.13 856.852 1590.64 857.83 1564.86 860.062C1563.47 856.47 1561.98 852.86 1560.54 849.268C1559.2 850.465 1557.87 851.664 1556.54 852.861C1550.99 852.824 1544.77 852.898 1539.64 852.789C1582.99 868.558 1497.76 851.623 1472.18 851.224C1450.6 850.897 1414.68 858.376 1391 859.991C1385.25 860.388 1389.2 856.507 1388.02 856.596C1374.15 857.703 1372.05 860.354 1353.4 859.991C1343.54 859.791 1333.47 854.93 1323.86 854.838C1253.33 854.185 1185.25 859.069 1115.18 859.595C1103.26 859.686 1092.98 853.752 1082.96 853.624C1068.63 853.443 1059.59 858.301 1046.13 858.376C1032.72 858.449 1013.4 852.642 1004.3 853.531C995.209 854.402 1010.77 860.028 994.124 858.486C986.478 857.777 999.982 853.587 990.534 853.459C961.046 853.06 919.433 858.249 888.043 853.223C889.43 854.475 891.324 855.602 893.019 856.799C859.574 856.309 830.028 853.296 795.504 852.861C783.431 852.699 761.657 856.377 749.791 856.36C737.925 856.342 732.527 852.35 723.026 852.24C719.122 852.185 720.648 855.762 718.028 855.69C685.257 854.745 667.276 848.378 632.963 849.103C564.668 850.543 495.216 851.875 425.552 853.177C363.249 854.365 300.198 841.238 243.399 814.974C238.409 812.657 232.974 815.179 225.442 811.961C213.87 806.917 215.452 802.902 214.078 801.976C205.209 795.67 206.993 801.314 194.601 793.435C166.99 776.324 129.713 739.65 108.936 715.506C60.3269 660.483 27.6566 604.973 8.59817 534.108C7.28514 528.987 13.4019 531.26 11.5937 522.38C4.50318 484.382 1.72168 464.263 0.258362 436.5C0.258362 436.5 0.258362 436.5 0.258362 436.5C-0.388933 418.508 -0.199665 397.212 5.4126 366.266C14.222 285.412 94.3054 150.903 173.294 100.27C173.301 100.28 173.309 100.291 173.317 100.301C190.326 74.4445 225.975 56.2644 257.702 51.1412C120.901 135.878 22.6434 270.241 20.2991 436.5C20.2991 436.5 20.2991 436.5 20.2991 436.5C20.2068 454.694 21.3717 472.889 23.9521 491.262C47.3244 684.526 241.766 830.034 425.552 824.771C431.468 824.81 437.375 824.867 443.272 824.944C461.202 825.18 468.405 830.988 483.51 829.772C486.063 829.567 479.452 825.09 487.304 824.636C595.19 818.538 710.222 828.741 816.156 825.91C844.72 825.148 849.199 820.157 874.32 818.868C869.904 821.227 867.016 823.693 863.164 826.07C977.835 833.438 1092.67 830.153 1208.83 831.206C1214.07 831.262 1214.74 836.144 1220.24 836.326C1231.23 836.706 1241.76 831.334 1251.36 831.151C1263.9 830.915 1266.07 834.8 1277.63 834.546C1283.27 834.416 1281.58 830.682 1293.85 831.316C1294.88 831.37 1295.55 835.287 1303.71 834.782C1326.06 833.385 1371.73 830.099 1390.23 829.119C1413.86 827.866 1432.82 833.767 1441.76 834.15C1465.9 835.185 1465.4 829.143 1485.83 829.14C1631.33 829.104 1770.42 835.979 1919.36 835.925C1928.72 835.922 1963.32 829.195 1980.64 829.465C1986.44 829.573 2016.78 831.35 2021.33 831.497C2039.77 832.06 2055.71 836.126 2065.88 836.979C2085.61 838.648 2107.65 832.297 2118.39 831.662C2134.44 830.704 2161.1 831.167 2173.55 831.427C2175.76 831.472 2177.52 831.493 2178.71 831.503C2197.96 831.42 2192.01 839.44 2205.94 836.669C2210.03 835.743 2205.23 830.281 2219.55 828.736C2231.51 827.319 2237.03 830.974 2245.43 830.323C2253.85 829.7 2267.23 819.459 2272.11 818.313C2298.16 812.266 2311.16 812.781 2338.43 801.094C2363.47 794.909 2452.86 724.215 2455.46 713.699C2478.81 678.591 2433.51 730.723 2429.48 732.164C2412.46 744.606 2413.32 740.335 2399.57 757.047C2376.44 754.921 2330.64 807.988 2306.82 794.286C2295.42 812.548 2278.86 810.665 2260.97 812.125C2235.93 813.733 2256.07 817.479 2238.07 820.83C2230.86 822.178 2209.58 818.807 2199.05 820.179C2189.45 821.513 2185.06 825.499 2173.55 826.491C2172.27 826.596 2170.91 826.665 2169.44 826.69C2143.4 827.162 2122.43 825.02 2100.55 819.522C2096.55 821.953 2092.81 824.386 2088.85 826.817C2073.75 824.203 2058.58 821.606 2043.48 819.011C2045.89 821.134 2048.31 823.276 2050.73 825.4C2046.31 825.708 2041.88 825.999 2037.46 826.289C2022.77 823.096 2008.73 820.138 1993.63 816.835C1952.59 829.119 1964.5 818.487 1941.69 816.89C1918.89 815.295 1905.69 822.406 1888.07 822.444C1864.34 822.499 1853.44 823.386 1829.5 822.878C1815.63 822.588 1792.1 815.726 1811.42 826.597C1768.11 827.468 1708.81 830.502 1670.07 826.092C1658.64 824.805 1673.89 821.381 1671.94 820.955C1662.23 818.941 1654.05 824.492 1644.04 823.697C1627.39 822.372 1594.98 818.05 1581.87 817.033C1563.02 815.563 1533.37 822.753 1530.34 823.279C1513.4 826.2 1508.86 820.23 1503.42 820.642C1472.44 823.038 1465.6 825.545 1455.84 812.952C1447.82 818.396 1414.23 827.558 1406.11 818.396C1405.9 826.67 1378.01 825.275 1360.85 827.344C1357.67 824.948 1354.43 822.567 1351.24 820.153C1315.43 834.963 1244.13 824.205 1197.02 822.444C1195.83 822.408 1193.72 828.61 1186.63 827.212C1186.18 827.098 1186.91 824.311 1182.16 823.949C1166.49 822.787 1106.7 815.825 1099.82 815.764C1074.49 815.528 1070.06 820.157 1054.65 820.593C1034.36 821.174 1031.43 816.996 1012.12 817.594C1003.08 817.866 994.853 823.364 980.628 822.587C972.206 822.133 971.372 817.815 964.701 817.467C940.966 816.215 923.534 818.94 902.47 813.314C896.973 827.05 886.907 816.926 876.478 815.891C834.146 811.662 781.387 817.466 745.065 816.215C633.45 812.336 534.286 804.061 425.552 801.99C423.979 801.958 422.408 801.918 420.837 801.869C404.125 801.18 399.576 807.845 381.765 805.501C373.766 804.334 366.319 798.298 353.675 795.739C343.478 793.678 328.287 792.581 315.779 788.624C312.444 787.574 313.576 783.035 308.798 781.395C272.648 768.838 237.544 754.227 204.558 732.476C192.313 724.35 189.585 713.617 184.492 723.503C181.868 717.835 179.31 712.503 177.242 707.056C157.885 698.312 151.279 681.498 133.375 661.388C131.419 659.378 113.025 646.896 111.42 633.927C107.719 635.27 105.935 638.564 102.808 640.137C95.0911 630.88 90.1799 612.714 87.1492 605.429C84.0191 598.149 77.3141 595.405 76.2638 593.2C72.4147 584.827 79.3775 584.207 79.1874 583.527C69.5877 542.142 68.9095 547.907 52.6575 525.314C48.0513 519.453 48.1936 475.169 40.4455 466.901C43.5786 466.258 46.5575 468.48 49.6366 468.906C49.396 458.105 49.6304 447.327 50.3101 436.5C50.3101 436.5 50.3101 436.5 50.3101 436.5C50.4529 434.226 50.6155 431.96 50.7974 429.703C48.3981 431.798 46.0126 434.276 43.6431 436.5C42.9523 437.148 42.2625 437.773 41.5731 438.359C41.6306 437.737 41.6844 437.118 41.7347 436.5C41.7347 436.5 41.7347 436.5 41.7347 436.5C43.9353 410.348 39.4927 387.692 43.6578 365.965C46.209 353.39 52.5747 356.343 52.7711 348.784C52.8249 347.296 47.8126 348.668 48.4799 344.336C54.6352 308.97 64.7428 295.424 80.904 263.995C88.7352 249.549 88.8374 232.212 107.051 215.345C108.741 213.616 128.077 199.472 129.715 181.767C135.271 180.408 139.281 178.554 143.652 177.924C152.666 146.136 157.827 161.447 189.834 139.434C205.804 127.084 262.824 90.3772 283.592 82.0352C295.44 76.2801 293.248 70.7306 295.395 69.6638C308.481 63.6571 310.313 69.3562 322.589 64.8227C334.865 60.362 349.837 50.1976 363.604 48.6854C374.065 47.6179 366.895 55.9926 381.758 51.5698C384.864 50.7004 375.102 45.3058 391.58 46.202C394.27 46.1439 420.385 51.6812 425.552 53.3904C411.897 56.8253 374.276 65.1475 360.728 69.6824C236.673 97.4572 69.3714 245.725 77.3732 436.5C77.3732 436.5 77.3732 436.5 77.3732 436.5C76.089 608.445 216.692 742.86 328.475 770.822C350.08 777.313 363.693 786.181 378.655 788.8C393.59 791.154 381.637 783.884 395.029 785.688C406.447 787.081 415.157 790.487 425.552 791.648C427.557 791.849 429.609 791.99 431.73 792.044C526.975 794.512 622.94 797.125 717.414 798.268C741.92 798.558 761.506 793.747 783.803 793.747C792.479 793.75 792.748 799.954 798.912 799.9C865.337 799.409 926.785 793.439 992.851 794.165C1020.28 794.474 1049.92 799.7 1077.1 800.191C1099.49 800.608 1122.71 797.034 1142.85 796.961C1153.78 796.906 1159.55 801.631 1163.5 802.003C1177.27 803.238 1172.46 797.466 1179.5 797.466C1198.91 797.486 1208.57 804.454 1226.76 803.91C1233.89 803.692 1232.98 799.251 1243.34 798.559C1256.49 797.688 1251.63 801.785 1261.02 801.932C1261.58 801.95 1259.74 798.775 1264.72 798.647C1296.78 797.812 1336.81 795.309 1367.73 795.527C1431.7 795.963 1494.83 802.08 1554.43 803.278C1569.48 803.568 1565.48 799.429 1570.26 799.229C1593.27 798.287 1601.49 803.238 1625.59 801.46C1629.6 801.168 1645.73 795.437 1661.14 796.889C1669.46 797.671 1678.91 801.246 1686 802.08C1693.09 802.915 1694.22 797.651 1702.74 797.647C1718.26 797.629 1713.75 801.278 1735.94 800.625C1744.88 800.371 1774.72 795.383 1797.74 795.763C1835.34 796.38 1881.95 800.937 1926.29 801.009C1941.5 801.045 1961.03 795.636 1984.61 795.582C2013.43 795.51 2066.54 796.739 2096.08 796.812C2111.18 796.849 2112.27 802.515 2114.07 802.751C2125.62 804.327 2120.96 797.996 2128.7 798.246C2139.34 798.591 2149.26 803.261 2158.92 803.569C2165.08 803.766 2166.06 799.101 2167.4 799.065C2169.46 799 2171.51 798.939 2173.55 798.882C2217.03 797.381 2255.78 791.043 2296.51 775.976C2435.47 725.578 2532.29 582.25 2528.66 436.5C2528.66 436.5 2528.66 436.5 2528.66 436.5C2528.18 341.235 2488.13 248.202 2420.83 181.817C2406.5 167.956 2409.65 163.035 2395.15 152.568C2380.28 142.107 2359.62 143.724 2354.23 124.389C2352.4 126.602 2351.43 128.372 2349.74 130.372C2320.27 108.731 2284.12 99.2487 2249.83 92.2709C2224.29 87.0821 2201.25 84.2372 2177.08 83.6429C2175.83 83.6137 2174.66 83.5761 2173.55 83.5309C2153.88 82.7991 2154.57 78.7756 2135.22 84.8397C2033.14 80.8106 1929.96 81.7916 1828.75 75.0945C1805.02 85.6392 1782.26 78.9955 1749.43 77.4347C1745.38 77.2373 1749.73 81.0847 1737.71 80.7581C1722.62 80.3563 1714.8 74.4781 1689.38 74.8034C1682.65 74.8941 1632.81 81.4113 1614.36 78.0719C1595.92 74.733 1569.2 72.7732 1550.04 69.5792C1552.76 72.1016 1556.21 74.5146 1559.24 77.0007C1549.69 77.4363 1540.08 77.8561 1530.53 78.2916C1529.14 75.2607 1527.75 72.2273 1526.41 69.1782C1520.86 72.0638 1515.31 74.9138 1509.71 77.8357C1497.64 62.2655 1510.02 67.3439 1483.15 71.2822C1469.69 73.2422 1459.01 70.5218 1445.19 72.1007C1440.21 72.681 1437.02 77.2658 1431.53 77.8522C1418.08 79.2675 1425.92 72.9572 1417.61 72.9906C1409.23 73.045 1397.21 79.9762 1382.21 76.8908C1397.87 64.5339 1352.6 68.565 1350.44 78.1653C1345.06 78.183 1340.54 77.784 1334.59 78.0554C1340.08 53.8082 1311.86 71.0152 1300.66 74.3364C1289.47 77.6529 1289.93 71.138 1287.31 71.392C1279.76 72.1002 1285.25 74.8054 1279.97 74.8968C1244.93 75.4412 1211.94 71.4639 1177.36 71.1009C1172.39 71.0492 1176.8 74.7309 1171 74.3694C1165.2 74.0064 1159.63 70.3414 1151.05 70.5955C1148.75 70.6599 1148.03 73.894 1144.44 73.897C1069.28 73.7518 997.912 70.9965 921.26 70.579C914.325 70.5427 908.879 76.293 895.473 76.0943C882.066 75.8947 861.723 70.7053 845.079 70.3043C840.661 70.1955 839.462 74.9854 833.605 74.8583C813.675 74.4219 796.507 70.522 775.805 69.8869C740.824 68.817 704.197 71.7391 668.702 68.909C661.973 68.3828 663.048 64.3879 653.343 63.2619C636.595 61.32 642.898 67.1453 639.507 67.9257C628.414 70.4466 624.928 62.7042 614.196 64.6957C612.556 65.0036 614.896 69.5952 613.424 69.6671C590.613 70.4657 589.416 59.7043 565.166 65.4757C543.602 59.2883 579.621 57.1805 583.32 53.8958C592.353 45.9115 568.473 36.529 554.397 33.5156C542.275 30.9209 542.364 35.8918 537.538 35.8942C512.007 35.9123 473.986 36.8575 454.564 34.4989C442.799 33.0833 464.006 31.0125 457.995 29.3791C452.037 27.7479 448.18 31.4837 442.068 27.4015C435.954 23.318 423.483 11.3007 425.846 5.56557ZM2516.84 223.062C2481.33 197.237 2412.33 123.044 2362.23 96.8117C2323.41 73.0419 2288.35 48.0284 2291.07 71.5752C2337.29 87.0752 2374.25 103.997 2414.66 136.776C2419.06 139.996 2441.72 162.908 2448.88 171.431C2453.06 176.113 2450.58 178.703 2456.25 184.947C2457.49 186.26 2467.76 190.948 2470.04 193.999C2478.48 204.095 2493.8 239.668 2496.2 244.169C2504.09 256.431 2506.13 248.877 2510.14 253.979C2523.21 271.573 2516.6 277.371 2527.19 295.8C2529.02 299.08 2540.62 308.369 2544.37 324.102C2545.92 330.447 2545.09 342.11 2546.37 346.813C2553.68 372.545 2562.35 402.237 2561.98 427.316C2561.94 431.218 2561.64 434.188 2561.22 436.5C2559.35 446.292 2555.53 444.265 2554.62 452.811C2553.47 463.327 2558.85 476.677 2558.28 484.149C2557.5 495.968 2551.19 509.448 2550.5 512.941C2537.14 583.055 2510.62 644.226 2465.04 697.927C2498.88 664.137 2526.56 623.713 2546.37 579.527C2550.2 551.797 2550.8 566.55 2557.99 549.77C2563.32 536.271 2554.65 530.535 2559.45 512.703C2559.44 512.718 2559.44 512.733 2559.44 512.747C2561.88 503.67 2572.16 483.787 2570.55 462.937C2570.44 462.2 2565.64 460.006 2565.87 444.885C2565.89 442.203 2565.88 439.403 2565.82 436.5C2565.82 436.5 2565.82 436.5 2565.82 436.5C2565.61 402.43 2556.78 356.025 2547.03 322.235C2543.96 311.441 2549.89 311.889 2545.96 298.969C2542.96 289.507 2534.14 280.896 2528.61 266.703C2521.6 248.981 2524.18 236.325 2507.08 231.289C2510.15 228.116 2514 226.39 2516.84 223.062ZM1517.98 42.7553C1515.31 42.2812 1479.45 28.8905 1490.08 43.1893C1538.27 49.3963 1590.37 46.3132 1641.08 49.7978C1623.77 35.6596 1594.48 41.2319 1558.93 42.2664C1558.91 42.2664 1558.9 42.2664 1558.88 42.2664C1557.2 42.3146 1564.22 38.6196 1554.68 39.2891C1550.05 39.6157 1532.32 45.2781 1517.98 42.7553Z" fill="white"/>
<path d="M822.599 488.539C826.419 489.505 827.695 486.108 830.229 484.729C844.265 477.107 854.145 473.15 870.181 479.401C872.759 480.401 886.269 489.763 887.312 488.539C889.623 454.993 899.615 411.498 923.04 386.185C953.913 352.811 984.519 384.832 987.166 420.49C991.425 477.771 954.689 520.568 921.591 562.494C899.089 590.997 866.56 610.818 830.617 592.971C802.382 578.953 767.258 535.69 747.86 509.972C728.367 484.134 719.702 454.631 722.961 422.05C725.366 397.979 742.954 367.83 771.302 377.486C807.296 389.746 823.349 454.881 822.591 488.539H822.599ZM781.768 402.583C773.259 403.876 770.396 425.646 770.008 432.681C769.526 441.397 770.62 476.676 782.777 477.245C791.959 477.668 795.123 459.752 795.666 452.915C796.39 443.708 797.563 400.186 781.768 402.583ZM930.126 402.575C927.471 403.075 926.169 404.652 924.772 406.773C917.229 418.197 917.401 460.356 924.79 472.003C931.058 481.883 937.868 476.573 941.317 467.736C946.705 453.941 946.404 422.999 940.162 409.523C938.101 405.075 935.877 401.488 930.126 402.575Z" fill="black"/>
<path d="M936.193 223.611C940.116 219.861 947.944 222.128 951.427 225.896C957.6 232.578 963.721 264.951 961.204 273.495C958.1 284.039 929.986 269.555 927.037 259.684C925.166 253.416 931.71 227.905 936.193 223.611Z" fill="black"/>
<path d="M765.645 220.818C774.336 218.662 781.483 237.811 783.104 244.535C786.768 259.726 786.156 259.304 773.611 266.598C768.025 269.848 751.79 280.021 749.816 269.693C747.747 258.881 752.946 223.964 765.645 220.826V220.818Z" fill="black"/>
<path d="M930.128 402.573C935.888 401.478 938.103 405.064 940.164 409.522C946.414 422.997 946.707 453.948 941.319 467.734C937.87 476.571 931.06 481.882 924.792 472.001C917.395 460.354 917.222 418.195 924.774 406.771C926.171 404.65 927.473 403.081 930.128 402.573Z" fill="white"/>
<path d="M781.763 402.579C797.557 400.182 796.393 443.703 795.66 452.911C795.117 459.748 791.953 477.663 782.771 477.241C770.606 476.68 769.52 441.393 770.003 432.676C770.391 425.65 773.253 403.872 781.763 402.579Z" fill="white"/>
<path d="M829.326 522.079L846.896 549.641C849.534 551.9 853.086 557.78 856.863 557.185L881.908 525.424L879.89 522.079H829.317H829.326Z" fill="white"/>
<path d="M752.761 146.995C741.536 157.417 727.39 206.908 722.044 223.442C713.693 249.269 706.685 270.282 696.114 295.196C687.679 315.061 684.217 347.047 666.05 359.914C654.228 368.293 633.019 371.577 630.005 389.502C626.832 408.378 631.731 427.861 642.452 443.415C646.651 449.508 659.22 460.173 660.218 466.481C663.95 490.004 646.95 515.001 650.467 538.888C652.94 555.72 662.345 563.717 679.131 556.607C684.161 554.479 688.565 547.463 695.358 550.887C704.996 561.198 693.8 574.905 705.519 584.478C711.015 588.975 717.733 589.199 724.573 587.399C733.987 584.926 738.298 570.342 749.756 573.785C753.918 575.035 778.859 604.828 785.81 610.688C812.422 633.138 851.695 650.335 886.564 639.847C902.371 635.098 926.789 614.952 939.097 603.401C946.048 596.879 965.857 571.919 972.576 569.763C987.057 565.126 987.579 584.31 993.029 590.319C998.133 595.955 1006.49 595.955 1012.57 592.232C1025.85 584.086 1021.29 556.551 1027.55 554.647C1035.93 552.091 1044.21 578.133 1060.58 566.255C1069.88 559.509 1069.73 542.265 1069.04 531.908C1067.39 507.294 1050.68 481.205 1066.3 457.887C1080.36 436.902 1096.83 431.724 1090.53 401.137C1086.51 381.673 1068.6 375.963 1057.26 362.937C1042.91 346.45 1032.74 318.952 1023.52 298.984C1006.81 262.762 1004.76 228.508 990.192 192.352C987.104 184.691 973.285 154.105 968.909 149.477C962.498 142.702 955.528 142.171 947.933 147.303C935.318 155.84 920.146 202.363 912.103 217.918C906.607 228.546 898.788 244.1 885.799 245.574C875.199 246.778 833.957 246.937 825.205 243.41C813.523 238.707 806.842 211.433 802.158 200.843C799.079 193.891 794.301 187.789 791.4 180.977C787.089 170.844 786.277 157.93 779.13 149.505C771.982 141.079 761.27 139.073 752.751 146.976L752.761 146.995ZM956.919 206.506C970.663 209.912 976.289 247.702 974.05 259.393C971.913 270.572 954.343 259.552 948.297 256.044C934.72 248.15 934.067 248.607 938.024 232.166C939.778 224.897 947.513 204.174 956.919 206.497V206.506ZM772.318 209.53C777.17 214.176 784.252 241.786 782.227 248.57C779.036 259.253 748.599 274.929 745.249 263.517C742.525 254.271 749.159 219.234 755.831 212.002C759.6 207.925 768.082 205.471 772.318 209.53ZM895.27 496.255C894.449 459.828 911.823 389.334 950.779 376.065C981.458 365.615 1000.49 398.245 1003.1 424.296C1006.62 459.557 997.237 491.487 976.149 519.452C955.155 547.276 917.141 594.107 886.583 609.279C847.692 628.594 812.478 607.142 788.125 576.295C752.304 530.919 712.554 484.601 717.154 422.607C720.019 384.015 753.143 349.361 786.557 385.48C811.899 412.875 822.723 459.949 825.224 496.255C826.353 497.571 840.974 487.447 843.764 486.365C861.119 479.6 871.812 483.883 887.003 492.131C889.746 493.624 891.127 497.3 895.261 496.255H895.27Z" fill="white"/>
<path d="M895.263 496.255C891.13 497.3 889.749 493.624 887.005 492.131C871.815 483.882 861.122 479.599 843.767 486.364C840.977 487.447 826.355 497.58 825.226 496.255C822.726 459.949 811.911 412.875 786.559 385.48C753.146 349.36 720.022 384.015 717.157 422.607C712.548 484.601 752.306 530.919 788.127 576.294C812.48 607.142 847.685 628.593 886.586 609.279C917.144 594.107 955.158 547.285 976.152 519.451C997.249 491.487 1006.63 459.557 1003.1 424.296C1000.5 398.244 981.461 365.614 950.781 376.065C911.825 389.333 894.451 459.827 895.272 496.255H895.263ZM939.454 403.227C948.663 404.626 951.761 428.187 952.181 435.801C952.703 445.234 951.519 483.416 938.362 484.031C928.425 484.489 925 465.099 924.413 457.7C923.629 447.735 922.36 400.633 939.454 403.227ZM778.89 403.217C781.763 403.759 783.172 405.466 784.684 407.762C792.848 420.125 792.662 465.752 784.665 478.358C777.882 489.051 770.51 483.304 766.778 473.74C760.946 458.81 761.273 425.322 768.028 410.738C770.259 405.923 772.666 402.042 778.89 403.217Z" fill="black"/>
<path d="M772.325 209.526C768.08 205.467 759.608 207.921 755.838 211.998C749.157 219.23 742.532 254.267 745.257 263.514C748.616 274.925 779.044 259.25 782.235 248.566C784.26 241.782 777.177 214.173 772.325 209.526Z" fill="black"/>
<path d="M956.92 206.512C947.514 204.179 939.779 224.903 938.025 232.181C934.059 248.621 934.722 248.164 948.298 256.058C954.344 259.576 971.914 270.586 974.051 259.408C976.29 247.707 970.664 209.917 956.92 206.521V206.512Z" fill="black"/>
<path d="M778.905 403.213C772.672 402.028 770.274 405.91 768.044 410.734C761.279 425.318 760.962 458.815 766.793 473.735C770.526 483.299 777.897 489.047 784.68 478.354C792.686 465.748 792.873 420.12 784.699 407.757C783.187 405.462 781.779 403.764 778.905 403.213Z" fill="white"/>
<path d="M939.458 403.233C922.364 400.639 923.623 447.74 924.417 457.706C925.004 465.105 928.429 484.494 938.366 484.037C951.532 483.431 952.708 445.24 952.185 435.806C951.765 428.202 948.667 404.632 939.458 403.233Z" fill="white"/>
<path d="M887.987 532.555L868.971 562.386C866.115 564.83 862.271 571.194 858.184 570.55L831.078 536.175L833.262 532.555H887.996H887.987Z" fill="white"/>
<path d="M1304.77 405.682C1304.77 410.076 1307.18 413.424 1311.99 415.726C1317.02 417.819 1324.86 420.016 1335.54 422.318C1347.67 424.829 1357.82 427.655 1365.98 430.794C1374.15 433.933 1381.16 438.955 1387.02 445.861C1393.08 452.557 1396.12 461.66 1396.12 473.17C1396.12 483.424 1392.98 492.318 1386.7 499.851C1380.63 507.385 1372.47 513.14 1362.22 517.116C1351.96 520.882 1340.77 522.766 1328.63 522.766C1312.1 522.766 1297.87 519.627 1285.94 513.349C1274.22 507.071 1265.54 498.072 1259.89 486.354L1291.9 469.717C1297.55 484.156 1309.8 491.376 1328.63 491.376C1336.79 491.376 1343.8 489.806 1349.66 486.667C1355.52 483.528 1358.45 479.029 1358.45 473.17C1358.45 468.147 1355.73 464.485 1350.29 462.183C1345.06 459.672 1336.48 456.952 1324.55 454.022C1312.2 451.092 1302.16 448.163 1294.42 445.233C1286.67 442.303 1279.98 437.804 1274.33 431.735C1268.68 425.457 1265.85 417.191 1265.85 406.937C1265.85 396.893 1268.68 388.208 1274.33 380.884C1279.98 373.35 1287.61 367.595 1297.24 363.619C1306.87 359.643 1317.43 357.655 1328.94 357.655C1342.55 357.655 1354.68 360.48 1365.36 366.13C1376.24 371.781 1384.61 379.837 1390.47 390.301L1358.76 406.309C1353.32 394.591 1343.38 388.731 1328.94 388.731C1321.62 388.731 1315.76 390.301 1311.37 393.44C1306.97 396.369 1304.77 400.45 1304.77 405.682ZM1474.46 465.008C1474.46 472.123 1476.14 477.041 1479.49 479.762C1482.83 482.482 1488.17 483.842 1495.49 483.842C1499.89 483.842 1504.7 483.528 1509.93 482.901V518.685C1500.1 519.731 1491.94 520.255 1485.45 520.255C1468.71 520.255 1456.15 516.488 1447.78 508.954C1439.62 501.211 1435.54 487.4 1435.54 467.52V396.579H1406.03V361.736H1435.54V323.126L1474.46 309.943V361.736H1509.31V396.579H1474.46V465.008ZM1659.08 361.736H1698V518.685H1659.08V503.304C1651.76 509.582 1643.7 514.5 1634.91 518.057C1626.33 521.406 1617.23 523.08 1607.6 523.08C1591.7 523.08 1577.78 519.522 1565.85 512.407C1553.92 505.292 1544.72 495.457 1538.23 482.901C1531.95 470.345 1528.81 456.219 1528.81 440.524C1528.81 424.829 1531.95 410.704 1538.23 398.148C1544.72 385.592 1553.92 375.757 1565.85 368.642C1577.78 361.317 1591.7 357.655 1607.6 357.655C1617.23 357.655 1626.33 359.434 1634.91 362.992C1643.7 366.34 1651.76 371.153 1659.08 377.431V361.736ZM1612.62 485.726C1621.2 485.726 1628.95 483.842 1635.85 480.076C1642.97 476.1 1648.51 470.659 1652.49 463.753C1656.67 456.847 1658.77 449 1658.77 440.21C1658.77 427.027 1654.27 416.25 1645.27 407.879C1636.48 399.508 1625.6 395.323 1612.62 395.323C1599.44 395.323 1588.56 399.613 1579.98 408.193C1571.61 416.563 1567.42 427.341 1567.42 440.524C1567.42 453.708 1571.61 464.59 1579.98 473.17C1588.56 481.54 1599.44 485.726 1612.62 485.726ZM1831.27 358.597L1828.44 395.323C1827.19 394.904 1824.99 394.695 1821.85 394.695C1808.88 394.695 1798.1 398.462 1789.52 405.996C1781.15 413.529 1776.97 423.783 1776.97 436.758V518.685H1738.04V361.736H1776.97V388.103C1780.52 379.733 1786.59 372.722 1795.17 367.072C1803.75 361.422 1814.11 358.597 1826.25 358.597H1831.27ZM1919.87 465.008C1919.87 472.123 1921.54 477.041 1924.89 479.762C1928.24 482.482 1933.57 483.842 1940.9 483.842C1945.29 483.842 1950.11 483.528 1955.34 482.901V518.685C1945.5 519.731 1937.34 520.255 1930.85 520.255C1914.11 520.255 1901.56 516.488 1893.19 508.954C1885.03 501.211 1880.94 487.4 1880.94 467.52V396.579H1851.44V361.736H1880.94V323.126L1919.87 309.943V361.736H1954.71V396.579H1919.87V465.008Z" fill="#E6E8EB"/>
</svg>
