<svg width="650" height="723" viewBox="0 0 650 723" fill="none" xmlns="http://www.w3.org/2000/svg">
<path d="M293 145H358L363 148L376 177L393 217L412 262L430 304L443 334L466 388L485 433L500 468L519 513L539 560L552 591V604L544 715L541 721L537 723H378L376 722L378 718L393 704L401 697L423 675L431 668L437 664H458L471 661L477 656L481 646V628L480 612L482 603L488 594L504 578L508 570L513 554V541L509 535L499 528L488 521L481 513L473 495L454 445L440 406L429 381L421 368L415 361L410 359H404L398 363L393 371L384 392L376 412L367 429L359 436L348 440L340 441H307L295 439L287 435L280 427L272 413L261 386L255 372L249 363L244 360H237L231 364L223 377L211 402L200 433L183 477L172 506L165 517L157 524L146 531L141 536L138 540L137 543V553L142 569L147 579L166 598L170 607V622L169 631V645L172 654L176 659L187 663L193 664H213L221 670L228 677L236 684L251 699L259 706L266 713L274 720L275 723H112L107 718L105 699L98 601V592L104 576L127 523L140 492L162 441L177 405L201 349L224 296L240 258L252 230L269 190L284 155L289 147L293 145Z" fill="#FEFEFE"/>
<path d="M301 0H349L377 3L403 8L426 14L445 21L475 34L496 46L511 56L525 66L539 77L554 90L569 105L576 113L588 128L599 144L607 157L616 173L624 189L632 209L640 235L645 256L649 285L650 301V356L647 362L645 364H637L625 357L611 346L599 335L590 326L579 311L565 287L556 268L539 227L528 203L515 181L501 162L490 149L478 136L466 125L451 114L431 102L410 92L383 83L358 78L337 76H313L287 79L264 84L240 92L220 101L201 112L186 123L173 134L159 148L146 165L133 183L121 204L109 229L93 269L80 296L65 319L57 329L43 343L32 352L18 362L12 365H5L1 358L0 352V301L2 276L6 251L14 221L20 203L29 182L42 157L54 138L63 126L71 116L80 106L87 98L96 89L107 80L115 73L131 61L151 48L172 36L195 25L224 14L244 8L274 3L301 0Z" fill="#FEFEFE"/>
<path d="M235 501H246L256 504L267 511L276 521L284 535L290 550L296 572L301 601V603L321 599L334 600L349 603L351 589L357 561L363 542L370 528L379 516L387 508L399 502L403 501H414L424 506L433 516L438 526L442 541V564L439 581L432 600L422 620L411 638L397 657L388 667L381 675L374 682L364 689L353 694L335 700L330 701H319L298 695L284 688L275 681L261 667L250 653L237 635L223 611L216 596L211 582L208 566V543L211 529L215 519L223 509L230 503L235 501Z" fill="#FEFEFE"/>
<path d="M7 398L16 399L28 406L39 415L47 426L53 442L58 463L65 508L71 560L76 615L81 687V717L77 722L73 723H12L7 721L2 715L0 706V414L1 404L5 399L7 398Z" fill="#FEFEFE"/>
<path d="M637 398H643L648 402L649 405V709L646 718L638 723H577L571 720L568 713V698L574 612L581 542L587 496L593 459L598 438L603 425L610 415L619 407L633 399L637 398Z" fill="#FEFEFE"/>
<path d="M252 534L257 535L262 540L266 549L268 561V574L264 590L260 596L258 597H250L245 593L240 583L238 574V563L241 547L246 538L249 535L252 534Z" fill="black"/>
<path d="M393 535H399L404 539L408 547L411 561V576L407 589L403 595L400 597H391L386 591L383 582L382 566L384 552L388 541L393 535Z" fill="black"/>
<path d="M295 639H355L354 644L346 655L339 662L335 667L327 673L322 672L312 663L305 655L297 645L295 639Z" fill="black"/>
</svg>
