<svg width="66" height="23" viewBox="0 0 66 23" fill="none" xmlns="http://www.w3.org/2000/svg">
<path d="M8.63204 15.4812C8.80238 15.5242 8.85929 15.3727 8.97234 15.3112C9.59834 14.9713 10.039 14.7948 10.7542 15.0736C10.8692 15.1182 11.4717 15.5358 11.5183 15.4812C11.6213 13.985 12.067 12.0451 13.1117 10.9161C14.4887 9.42765 15.8537 10.8558 15.9718 12.4461C16.1617 15.0009 14.5233 16.9097 13.0471 18.7796C12.0435 20.0508 10.5927 20.9348 8.98964 20.1389C7.73034 19.5137 6.1638 17.5841 5.29862 16.4371C4.42922 15.2847 4.04277 13.9689 4.18812 12.5157C4.29541 11.4422 5.07983 10.0975 6.34414 10.5282C7.94952 11.0749 8.66549 13.98 8.63166 15.4812H8.63204ZM6.81095 11.6475C6.43143 11.7052 6.30376 12.6761 6.28646 12.9899C6.26493 13.3786 6.31376 14.9521 6.85593 14.9775C7.26545 14.9963 7.40657 14.1973 7.4308 13.8923C7.4631 13.4817 7.51539 11.5406 6.81095 11.6475ZM13.4278 11.6471C13.3094 11.6694 13.2513 11.7398 13.189 11.8344C12.8526 12.3439 12.8602 14.2242 13.1898 14.7437C13.4693 15.1843 13.7731 14.9475 13.9269 14.5533C14.1672 13.9381 14.1538 12.558 13.8754 11.957C13.7835 11.7586 13.6843 11.5987 13.4278 11.6471Z" fill="black"/>
<path d="M13.6989 3.66529C13.8738 3.49802 14.223 3.59915 14.3783 3.76718C14.6536 4.06519 14.9267 5.50907 14.8144 5.89013C14.6759 6.3604 13.422 5.7144 13.2905 5.27412C13.2071 4.99458 13.4989 3.85678 13.6989 3.66529Z" fill="black"/>
<path d="M6.09138 3.5407C6.47898 3.44457 6.79774 4.2986 6.87003 4.59852C7.03346 5.27605 7.00616 5.25721 6.44668 5.58251C6.19751 5.72748 5.47345 6.18121 5.3854 5.72056C5.29311 5.23837 5.52498 3.68106 6.09138 3.54109V3.5407Z" fill="black"/>
<path d="M13.4279 11.647C13.6848 11.5982 13.7836 11.7582 13.8755 11.957C14.1543 12.558 14.1673 13.9384 13.927 14.5533C13.7732 14.9474 13.4694 15.1843 13.1899 14.7436C12.86 14.2241 12.8523 12.3438 13.1891 11.8343C13.2514 11.7397 13.3095 11.6697 13.4279 11.647Z" fill="white"/>
<path d="M6.81072 11.6476C7.51517 11.5407 7.46325 13.4817 7.43057 13.8924C7.40635 14.1973 7.26522 14.9964 6.85571 14.9775C6.31315 14.9525 6.2647 13.3787 6.28623 12.9899C6.30354 12.6765 6.4312 11.7052 6.81072 11.6476Z" fill="white"/>
<path d="M8.93251 16.9771L9.71617 18.2064C9.83383 18.3071 9.99226 18.5694 10.1607 18.5428L11.2777 17.1262L11.1877 16.9771H8.93213H8.93251Z" fill="white"/>
<path d="M5.51728 0.248396C5.01664 0.713243 4.38575 2.92054 4.14729 3.65797C3.77483 4.8099 3.4623 5.74708 2.99079 6.85822C2.61458 7.74422 2.46018 9.17081 1.64993 9.74469C1.12265 10.1184 0.176729 10.2649 0.0423101 11.0643C-0.0991834 11.9062 0.119303 12.7751 0.597468 13.4689C0.784738 13.7406 1.3453 14.2163 1.38983 14.4976C1.55629 15.5468 0.798054 16.6616 0.954945 17.727C1.06523 18.4777 1.48471 18.8344 2.23338 18.5173C2.45769 18.4224 2.65412 18.1094 2.95708 18.2622C3.38697 18.722 2.88758 19.3334 3.41027 19.7603C3.65539 19.9609 3.95503 19.9709 4.26007 19.8906C4.67997 19.7803 4.87224 19.1299 5.38328 19.2834C5.56888 19.3392 6.68127 20.668 6.99131 20.9293C8.17819 21.9306 9.9298 22.6976 11.485 22.2298C12.1899 22.018 13.279 21.1195 13.8279 20.6043C14.138 20.3134 15.0215 19.2002 15.3211 19.1041C15.967 18.8972 15.9903 19.7529 16.2333 20.0209C16.461 20.2722 16.8338 20.2722 17.1048 20.1062C17.6974 19.7429 17.4939 18.5148 17.7731 18.4299C18.1468 18.3159 18.516 19.4774 19.2463 18.9476C19.6608 18.6467 19.6541 17.8777 19.6233 17.4157C19.5497 16.3179 18.8048 15.1543 19.5014 14.1143C20.1281 13.1784 20.8631 12.9474 20.5818 11.5833C20.4028 10.7152 19.6038 10.4605 19.0982 9.87952C18.4581 9.14417 18.0045 7.91776 17.5933 7.02718C16.848 5.41166 16.7564 3.88395 16.1068 2.27134C15.9691 1.92967 15.3527 0.565508 15.1576 0.359094C14.8717 0.0569635 14.5608 0.0332425 14.222 0.262129C13.6594 0.642913 12.9827 2.71787 12.624 3.41161C12.3789 3.88561 12.0301 4.57934 11.4508 4.6451C10.9781 4.69878 9.13868 4.70586 8.74833 4.54855C8.2273 4.33881 7.92932 3.12238 7.72041 2.65004C7.58308 2.34 7.37001 2.06784 7.24059 1.76404C7.04832 1.31209 7.01212 0.736132 6.69334 0.360342C6.37456 -0.0154479 5.89681 -0.104922 5.51686 0.247564L5.51728 0.248396ZM14.6228 2.90265C15.2358 3.05454 15.4867 4.73998 15.3869 5.26143C15.2916 5.75998 14.5079 5.2685 14.2383 5.11203C13.6328 4.75996 13.6036 4.78035 13.7801 4.04708C13.8583 3.72289 14.2033 2.79861 14.6228 2.90223V2.90265ZM6.38954 3.03748C6.60594 3.24473 6.92181 4.47614 6.8315 4.77868C6.68918 5.25518 5.33167 5.95433 5.18227 5.44537C5.06075 5.03296 5.35664 3.47029 5.6542 3.14776C5.82232 2.9659 6.20061 2.85645 6.38954 3.03748ZM11.8732 15.8256C11.8366 14.2009 12.6115 11.0568 14.349 10.4651C15.7173 9.99896 16.5663 11.4543 16.6824 12.6162C16.8397 14.1888 16.421 15.6129 15.4805 16.8601C14.5441 18.1011 12.8487 20.1898 11.4858 20.8665C9.75127 21.7279 8.18069 20.7712 7.09452 19.3954C5.49689 17.3716 3.72406 15.3058 3.92922 12.5408C4.05698 10.8196 5.53434 9.27401 7.0246 10.885C8.15488 12.1068 8.63763 14.2063 8.74916 15.8256C8.79951 15.8843 9.45163 15.4327 9.57606 15.3845C10.3501 15.0827 10.827 15.2738 11.5045 15.6416C11.6269 15.7082 11.6885 15.8722 11.8728 15.8256H11.8732Z" fill="white"/>
<path d="M11.8734 15.8258C11.6891 15.8724 11.6275 15.7084 11.5051 15.6418C10.8276 15.274 10.3507 15.0829 9.57665 15.3847C9.45221 15.4329 8.8001 15.8849 8.74974 15.8258C8.63821 14.2065 8.15588 12.107 7.02518 10.8852C5.53492 9.27422 4.05756 10.8198 3.9298 12.5411C3.72422 15.306 5.49747 17.3718 7.0951 19.3956C8.18127 20.7714 9.75143 21.7281 11.4864 20.8667C12.8493 20.19 14.5447 18.1018 15.4811 16.8604C16.422 15.6131 16.8403 14.189 16.6829 12.6164C16.5668 11.4545 15.7179 9.99917 14.3496 10.4653C12.6121 11.057 11.8372 14.2011 11.8738 15.8258H11.8734ZM13.8443 11.6767C14.2551 11.7391 14.3932 12.7899 14.412 13.1295C14.4353 13.5502 14.3824 15.2532 13.7956 15.2806C13.3524 15.301 13.1997 14.4362 13.1735 14.1062C13.1385 13.6618 13.0819 11.561 13.8443 11.6767ZM6.6831 11.6763C6.81128 11.7004 6.87412 11.7766 6.94153 11.879C7.30567 12.4304 7.29735 14.4654 6.9407 15.0276C6.63816 15.5045 6.30939 15.2482 6.14293 14.8216C5.88283 14.1558 5.8974 12.6622 6.19869 12.0117C6.29816 11.797 6.40553 11.6238 6.6831 11.6763Z" fill="black"/>
<path d="M6.38937 3.03757C6.20002 2.85654 5.82215 2.96599 5.65402 3.14785C5.35606 3.47038 5.06058 5.03305 5.1821 5.44546C5.33192 5.95442 6.689 5.25527 6.83133 4.77877C6.92164 4.47623 6.60577 3.24482 6.38937 3.03757Z" fill="black"/>
<path d="M14.6228 2.90265C14.2034 2.79861 13.8584 3.7229 13.7801 4.0475C13.6033 4.78077 13.6328 4.76038 14.2383 5.11245C14.508 5.26934 15.2916 5.7604 15.3869 5.26185C15.4868 4.73998 15.2358 3.05455 14.6228 2.90307V2.90265Z" fill="black"/>
<path d="M6.68279 11.6761C6.4048 11.6232 6.29785 11.7964 6.19839 12.0115C5.89667 12.662 5.88252 14.156 6.14262 14.8214C6.30908 15.248 6.63785 15.5043 6.94039 15.0274C7.29745 14.4652 7.30578 12.4302 6.94123 11.8788C6.87381 11.7764 6.81097 11.7006 6.68279 11.6761Z" fill="white"/>
<path d="M13.844 11.6767C13.0816 11.561 13.1378 13.6618 13.1732 14.1062C13.1994 14.4363 13.3521 15.301 13.7954 15.2806C14.3825 15.2536 14.435 13.5503 14.4117 13.1295C14.393 12.7904 14.2548 11.7391 13.844 11.6767Z" fill="white"/>
<path d="M11.5479 17.4443L10.6998 18.7748C10.5725 18.8838 10.401 19.1676 10.2187 19.1389L9.00978 17.6058L9.10716 17.4443H11.5483H11.5479Z" fill="white"/>
<path d="M29.5925 13.6964C29.5925 13.9769 29.6585 14.1707 29.7905 14.278C29.9225 14.3852 30.1329 14.4389 30.4217 14.4389C30.5949 14.4389 30.7847 14.4265 30.9909 14.4017V15.8125C30.6032 15.8538 30.2814 15.8744 30.0257 15.8744C29.3657 15.8744 28.8707 15.7259 28.5407 15.4289C28.2189 15.1236 28.058 14.5791 28.058 13.7954V10.9986H26.8948V9.625H28.058V8.10287L29.5925 7.58312V9.625H30.9662V10.9986H29.5925V13.6964ZM36.8708 9.625H38.4053V15.8125H36.8708V15.2061C36.582 15.4536 36.2644 15.6475 35.9179 15.7877C35.5797 15.9198 35.2208 15.9858 34.8413 15.9858C34.2143 15.9858 33.6657 15.8455 33.1954 15.565C32.7252 15.2845 32.3622 14.8967 32.1064 14.4017C31.8589 13.9067 31.7352 13.3499 31.7352 12.7311C31.7352 12.1124 31.8589 11.5555 32.1064 11.0605C32.3622 10.5655 32.7252 10.1777 33.1954 9.89725C33.6657 9.6085 34.2143 9.46412 34.8413 9.46412C35.2208 9.46412 35.5797 9.53425 35.9179 9.6745C36.2644 9.8065 36.582 9.99625 36.8708 10.2437V9.625ZM35.0393 14.5131C35.3775 14.5131 35.6828 14.4389 35.955 14.2904C36.2355 14.1336 36.4542 13.9191 36.6109 13.6469C36.7759 13.3746 36.8584 13.0652 36.8584 12.7188C36.8584 12.199 36.681 11.7741 36.3263 11.4441C35.9798 11.1141 35.5508 10.9491 35.0393 10.9491C34.5195 10.9491 34.0905 11.1182 33.7523 11.4565C33.4223 11.7865 33.2573 12.2114 33.2573 12.7311C33.2573 13.2509 33.4223 13.6799 33.7523 14.0181C34.0905 14.3481 34.5195 14.5131 35.0393 14.5131ZM42.7952 9.46412C43.3892 9.46412 43.9213 9.61262 44.3916 9.90962C44.8701 10.1984 45.2413 10.5902 45.5053 11.0852C45.7693 11.5802 45.9013 12.1289 45.9013 12.7311C45.9013 12.9291 45.8848 13.1106 45.8518 13.2756H41.0751C41.1988 13.7129 41.4175 14.0552 41.731 14.3027C42.0445 14.542 42.4446 14.6616 42.9313 14.6616C43.2283 14.6616 43.513 14.5956 43.7852 14.4636C44.0657 14.3316 44.2761 14.1625 44.4163 13.9562L45.592 14.6492C45.3032 15.0782 44.9278 15.4082 44.4658 15.6392C44.0121 15.862 43.4882 15.9734 42.8942 15.9734C42.2342 15.9734 41.6485 15.8331 41.137 15.5526C40.6255 15.2721 40.2295 14.8844 39.949 14.3894C39.6767 13.8944 39.5406 13.3375 39.5406 12.7188C39.5406 12.1082 39.6767 11.5555 39.949 11.0605C40.2295 10.5655 40.6172 10.1777 41.1122 9.89725C41.6072 9.6085 42.1682 9.46412 42.7952 9.46412ZM44.4658 12.0752C44.3998 11.6792 44.2142 11.3699 43.909 11.1471C43.612 10.9161 43.2366 10.8006 42.7828 10.8006C42.4693 10.8006 42.1806 10.8584 41.9166 10.9739C41.6608 11.0894 41.4546 11.2461 41.2978 11.4441C41.1411 11.6421 41.0586 11.8525 41.0503 12.0752H44.4658ZM51.7108 7.15H53.2453V15.8125H51.7108V15.2185C51.4303 15.466 51.1168 15.6557 50.7703 15.7877C50.4238 15.9198 50.065 15.9858 49.6937 15.9858C49.0667 15.9858 48.5181 15.8455 48.0478 15.565C47.5776 15.2845 47.2146 14.8967 46.9588 14.4017C46.7113 13.9067 46.5876 13.3499 46.5876 12.7311C46.5876 12.1124 46.7113 11.5555 46.9588 11.0605C47.2146 10.5655 47.5776 10.1777 48.0478 9.89725C48.5181 9.6085 49.0667 9.46412 49.6937 9.46412C50.065 9.46412 50.4197 9.53425 50.758 9.6745C51.1045 9.8065 51.4221 9.99212 51.7108 10.2314V7.15ZM49.8917 14.5131C50.23 14.5131 50.5352 14.4389 50.8075 14.2904C51.088 14.1336 51.3066 13.9191 51.4633 13.6469C51.6283 13.3746 51.7108 13.0652 51.7108 12.7188C51.7108 12.199 51.5335 11.7741 51.1787 11.4441C50.8322 11.1141 50.4032 10.9491 49.8917 10.9491C49.372 10.9491 48.943 11.1182 48.6047 11.4565C48.2747 11.7865 48.1097 12.2114 48.1097 12.7311C48.1097 13.2509 48.2747 13.6799 48.6047 14.0181C48.943 14.3481 49.372 14.5131 49.8917 14.5131ZM59.4334 9.625H60.9679V15.8125H59.4334V15.2061C59.1447 15.4536 58.827 15.6475 58.4805 15.7877C58.1423 15.9198 57.7834 15.9858 57.4039 15.9858C56.7769 15.9858 56.2283 15.8455 55.758 15.565C55.2878 15.2845 54.9248 14.8967 54.669 14.4017C54.4215 13.9067 54.2978 13.3499 54.2978 12.7311C54.2978 12.1124 54.4215 11.5555 54.669 11.0605C54.9248 10.5655 55.2878 10.1777 55.758 9.89725C56.2283 9.6085 56.7769 9.46412 57.4039 9.46412C57.7834 9.46412 58.1423 9.53425 58.4805 9.6745C58.827 9.8065 59.1447 9.99625 59.4334 10.2437V9.625ZM57.6019 14.5131C57.9402 14.5131 58.2454 14.4389 58.5177 14.2904C58.7982 14.1336 59.0168 13.9191 59.1735 13.6469C59.3385 13.3746 59.421 13.0652 59.421 12.7188C59.421 12.199 59.2437 11.7741 58.8889 11.4441C58.5424 11.1141 58.1134 10.9491 57.6019 10.9491C57.0822 10.9491 56.6532 11.1182 56.3149 11.4565C55.9849 11.7865 55.8199 12.2114 55.8199 12.7311C55.8199 13.2509 55.9849 13.6799 56.3149 14.0181C56.6532 14.3481 57.0822 14.5131 57.6019 14.5131ZM63.8996 14.0676C63.8996 14.1996 63.9326 14.2945 63.9986 14.3522C64.0646 14.41 64.1677 14.4389 64.308 14.4389C64.4152 14.4389 64.5431 14.4265 64.6916 14.4017V15.8125C64.3864 15.862 64.1017 15.8868 63.8377 15.8868C63.3592 15.8868 62.9921 15.763 62.7364 15.5155C62.4889 15.2597 62.3651 14.8101 62.3651 14.1666V7.15H63.8996V14.0676Z" fill="#E6E8EB"/>
</svg>
