<svg width="339" height="491" viewBox="0 0 339 491" fill="none" xmlns="http://www.w3.org/2000/svg">
<path d="M90.6048 3.65805C82.3837 11.2915 72.0234 47.5385 68.1076 59.6482C61.9913 78.5644 56.8591 93.9544 49.1163 112.201C42.9384 126.75 40.403 150.177 27.0974 159.601C18.4388 165.738 2.90536 168.143 0.697998 181.271C-1.62552 195.096 1.96234 209.365 9.81448 220.757C12.8897 225.22 22.095 233.031 22.8262 237.651C25.5598 254.879 13.1084 273.187 15.6848 290.682C17.4958 303.01 24.3843 308.867 36.6785 303.659C40.362 302.101 43.5876 296.962 48.5627 299.47C55.6221 307.022 47.4214 317.061 56.0048 324.072C60.03 327.366 64.9504 327.53 69.9597 326.211C76.8551 324.4 80.0123 313.719 88.4044 316.241C91.4523 317.156 109.719 338.977 114.811 343.269C134.301 359.711 163.065 372.306 188.603 364.625C200.18 361.146 218.064 346.392 227.078 337.931C232.169 333.155 246.677 314.874 251.598 313.295C262.204 309.899 262.587 323.949 266.578 328.35C270.316 332.478 276.439 332.478 280.888 329.751C290.619 323.785 287.278 303.618 291.863 302.224C298 300.352 304.062 319.425 316.055 310.726C322.862 305.785 322.752 293.156 322.247 285.57C321.037 267.542 308.804 248.435 320.244 231.357C330.536 215.987 342.605 212.194 337.985 189.793C335.047 175.537 321.926 171.355 313.622 161.815C303.112 149.74 295.663 129.6 288.911 114.975C276.672 88.4463 275.168 63.359 264.5 36.8776C262.238 31.267 252.117 8.86549 248.912 5.47587C244.217 0.514462 239.112 0.124929 233.55 3.88357C224.31 10.1366 213.198 44.2104 207.307 55.6025C203.282 63.3863 197.555 74.7785 188.043 75.8582C180.279 76.7398 150.073 76.8559 143.663 74.2727C135.107 70.8285 130.214 50.853 126.783 43.0965C124.528 38.0052 121.029 33.5359 118.904 28.5471C115.747 21.1255 115.152 11.6674 109.917 5.49637C104.683 -0.674637 96.8374 -2.14392 90.598 3.64439L90.6048 3.65805ZM240.131 47.2447C250.197 49.739 254.318 77.4163 252.678 85.9792C251.113 94.1662 238.244 86.0954 233.816 83.5258C223.873 77.7444 223.394 78.0792 226.292 66.0379C227.577 60.7143 233.242 45.5362 240.131 47.2378V47.2447ZM104.929 49.4588C108.482 52.8621 113.669 73.0836 112.186 78.0519C109.849 85.8767 87.5569 97.3577 85.1035 88.9998C83.108 82.2274 87.967 56.5661 92.8532 51.2698C95.6141 48.2834 101.826 46.4861 104.929 49.4588ZM194.979 259.458C194.378 232.778 207.102 181.148 235.634 171.43C258.104 163.776 272.045 187.674 273.952 206.755C276.535 232.58 269.66 255.966 254.215 276.447C238.839 296.826 210.998 331.125 188.617 342.237C160.133 356.383 134.342 340.672 116.505 318.079C90.27 284.846 61.1575 250.922 64.5267 205.518C66.6247 177.253 90.885 151.872 115.357 178.326C133.918 198.39 141.845 232.867 143.677 259.458C144.504 260.421 155.213 253.007 157.256 252.214C169.967 247.259 177.799 250.396 188.924 256.437C190.933 257.531 191.945 260.223 194.972 259.458H194.979Z" fill="white"/>
<path d="M109.744 191.313C105.179 190.445 103.423 193.288 101.789 196.821C96.8347 207.503 96.6023 232.036 100.874 242.964C103.607 249.968 109.006 254.178 113.974 246.346C119.838 237.114 119.974 203.696 113.988 194.641C112.881 192.96 111.849 191.716 109.744 191.313Z" fill="white"/>
<path d="M227.343 191.327C214.823 189.428 215.746 223.925 216.326 231.224C216.757 236.643 219.265 250.844 226.543 250.509C236.186 250.065 237.047 222.094 236.664 215.185C236.357 209.615 234.088 192.353 227.343 191.327Z" fill="white"/>
<path d="M189.637 286.044L175.709 307.892C173.618 309.682 170.802 314.343 167.809 313.871L147.957 288.695L149.556 286.044H189.644H189.637Z" fill="white"/>
<path d="M66.8169 478.343C67.3119 478.343 67.8125 478.45 68.3188 478.664C68.825 478.866 69.2581 479.237 69.6181 479.777C69.9894 480.317 70.175 481.043 70.175 481.954V487H68.0994V481.954C68.0994 481.324 67.9194 480.874 67.5594 480.604C67.2106 480.323 66.8 480.182 66.3275 480.182C65.9225 480.182 65.5681 480.306 65.2644 480.554C64.9606 480.79 64.7638 481.172 64.6737 481.701V481.954V487H62.5981V481.954C62.5981 481.324 62.4181 480.874 62.0581 480.604C61.7094 480.323 61.2931 480.182 60.8094 480.182C60.4269 480.182 60.0781 480.301 59.7631 480.537C59.4594 480.773 59.2625 481.15 59.1725 481.667V487H57.08V478.562H59.1725V479.221C59.4538 478.951 59.7744 478.737 60.1344 478.579C60.5056 478.422 60.8994 478.343 61.3156 478.343C61.8331 478.343 62.3563 478.456 62.885 478.681C63.4138 478.906 63.8356 479.282 64.1506 479.811C64.4431 479.395 64.8256 479.046 65.2981 478.765C65.7706 478.484 66.2769 478.343 66.8169 478.343ZM79.8475 478.562H81.94V487H79.8475V486.173C79.4538 486.511 79.0207 486.775 78.5482 486.966C78.0869 487.146 77.5975 487.236 77.08 487.236C76.225 487.236 75.4769 487.045 74.8357 486.662C74.1944 486.28 73.6994 485.751 73.3507 485.076C73.0132 484.401 72.8444 483.642 72.8444 482.798C72.8444 481.954 73.0132 481.195 73.3507 480.52C73.6994 479.845 74.1944 479.316 74.8357 478.934C75.4769 478.54 76.225 478.343 77.08 478.343C77.5975 478.343 78.0869 478.439 78.5482 478.63C79.0207 478.81 79.4538 479.069 79.8475 479.406V478.562ZM77.35 485.228C77.8113 485.228 78.2275 485.127 78.5988 484.924C78.9813 484.711 79.2794 484.418 79.4932 484.047C79.7182 483.676 79.8307 483.254 79.8307 482.781C79.8307 482.072 79.5888 481.493 79.105 481.043C78.6325 480.593 78.0475 480.368 77.35 480.368C76.6413 480.368 76.0563 480.599 75.595 481.06C75.145 481.51 74.92 482.089 74.92 482.798C74.92 483.507 75.145 484.092 75.595 484.553C76.0563 485.003 76.6413 485.228 77.35 485.228ZM91.8798 475.187H93.9723V487H91.8798V486.19C91.4973 486.527 91.0698 486.786 90.5973 486.966C90.1248 487.146 89.6354 487.236 89.1292 487.236C88.2742 487.236 87.5261 487.045 86.8848 486.662C86.2436 486.28 85.7486 485.751 85.3998 485.076C85.0623 484.401 84.8936 483.642 84.8936 482.798C84.8936 481.954 85.0623 481.195 85.3998 480.52C85.7486 479.845 86.2436 479.316 86.8848 478.934C87.5261 478.54 88.2742 478.343 89.1292 478.343C89.6354 478.343 90.1192 478.439 90.5804 478.63C91.0529 478.81 91.4861 479.063 91.8798 479.389V475.187ZM89.3992 485.228C89.8604 485.228 90.2767 485.127 90.6479 484.924C91.0304 484.711 91.3286 484.418 91.5423 484.047C91.7673 483.676 91.8798 483.254 91.8798 482.781C91.8798 482.072 91.6379 481.493 91.1542 481.043C90.6817 480.593 90.0967 480.368 89.3992 480.368C88.6904 480.368 88.1054 480.599 87.6442 481.06C87.1942 481.51 86.9692 482.089 86.9692 482.798C86.9692 483.507 87.1942 484.092 87.6442 484.553C88.1054 485.003 88.6904 485.228 89.3992 485.228ZM101.28 478.343C102.09 478.343 102.816 478.546 103.457 478.951C104.109 479.344 104.616 479.879 104.976 480.554C105.336 481.229 105.516 481.977 105.516 482.798C105.516 483.068 105.493 483.316 105.448 483.541H98.9344C99.1031 484.137 99.4012 484.604 99.8287 484.941C100.256 485.267 100.802 485.431 101.466 485.431C101.871 485.431 102.259 485.341 102.63 485.161C103.012 484.981 103.299 484.75 103.491 484.469L105.094 485.414C104.7 485.999 104.188 486.449 103.558 486.764C102.939 487.068 102.225 487.219 101.415 487.219C100.515 487.219 99.7162 487.028 99.0187 486.646C98.3212 486.263 97.7812 485.734 97.3987 485.059C97.0275 484.384 96.8419 483.625 96.8419 482.781C96.8419 481.949 97.0275 481.195 97.3987 480.52C97.7812 479.845 98.31 479.316 98.985 478.934C99.66 478.54 100.425 478.343 101.28 478.343ZM103.558 481.904C103.468 481.364 103.215 480.942 102.799 480.638C102.394 480.323 101.882 480.166 101.263 480.166C100.836 480.166 100.442 480.244 100.082 480.402C99.7331 480.559 99.4519 480.773 99.2381 481.043C99.0244 481.313 98.9119 481.6 98.9006 481.904H103.558ZM119.569 478.343C120.424 478.343 121.173 478.54 121.814 478.934C122.455 479.316 122.944 479.845 123.282 480.52C123.631 481.195 123.805 481.954 123.805 482.798C123.805 483.642 123.631 484.401 123.282 485.076C122.944 485.751 122.455 486.28 121.814 486.662C121.173 487.045 120.424 487.236 119.569 487.236C119.018 487.236 118.489 487.129 117.983 486.916C117.477 486.702 117.027 486.404 116.633 486.021V487H114.541V475.187H116.633V479.558C117.027 479.176 117.477 478.877 117.983 478.664C118.501 478.45 119.029 478.343 119.569 478.343ZM119.299 485.228C120.008 485.228 120.588 485.003 121.038 484.553C121.499 484.092 121.729 483.507 121.729 482.798C121.729 482.089 121.499 481.51 121.038 481.06C120.588 480.599 120.008 480.368 119.299 480.368C118.602 480.368 118.011 480.593 117.528 481.043C117.055 481.493 116.819 482.072 116.819 482.781C116.819 483.254 116.926 483.676 117.139 484.047C117.364 484.418 117.663 484.711 118.034 484.924C118.416 485.127 118.838 485.228 119.299 485.228ZM132.143 478.562H134.337L131.384 487.017C130.945 488.176 130.338 489.042 129.561 489.616C128.796 490.201 127.891 490.454 126.845 490.375V488.35C126.912 488.361 127.013 488.367 127.148 488.367C128.048 488.367 128.751 487.821 129.258 486.73L125.545 478.562H127.79L130.27 483.929L132.143 478.562ZM149.508 478.562H151.601V487H149.508V486.173C149.115 486.511 148.681 486.775 148.209 486.966C147.748 487.146 147.258 487.236 146.741 487.236C145.886 487.236 145.138 487.045 144.496 486.662C143.855 486.28 143.36 485.751 143.011 485.076C142.674 484.401 142.505 483.642 142.505 482.798C142.505 481.954 142.674 481.195 143.011 480.52C143.36 479.845 143.855 479.316 144.496 478.934C145.138 478.54 145.886 478.343 146.741 478.343C147.258 478.343 147.748 478.439 148.209 478.63C148.681 478.81 149.115 479.069 149.508 479.406V478.562ZM147.011 485.228C147.472 485.228 147.888 485.127 148.26 484.924C148.642 484.711 148.94 484.418 149.154 484.047C149.379 483.676 149.491 483.254 149.491 482.781C149.491 482.072 149.25 481.493 148.766 481.043C148.293 480.593 147.708 480.368 147.011 480.368C146.302 480.368 145.717 480.599 145.256 481.06C144.806 481.51 144.581 482.089 144.581 482.798C144.581 483.507 144.806 484.092 145.256 484.553C145.717 485.003 146.302 485.228 147.011 485.228ZM160.284 478.394L160.132 480.368C160.065 480.346 159.946 480.334 159.778 480.334C159.08 480.334 158.501 480.537 158.04 480.942C157.59 481.347 157.365 481.898 157.365 482.596V487H155.272V478.562H157.365V479.98C157.556 479.53 157.882 479.153 158.343 478.849C158.805 478.546 159.361 478.394 160.014 478.394H160.284ZM166.566 484.114C166.566 484.497 166.656 484.761 166.836 484.907C167.016 485.054 167.303 485.127 167.696 485.127C167.933 485.127 168.191 485.11 168.473 485.076V487C167.944 487.056 167.505 487.084 167.156 487.084C166.256 487.084 165.581 486.882 165.131 486.477C164.693 486.061 164.473 485.318 164.473 484.249V480.436H162.887V478.562H164.473V476.487L166.566 475.778V478.562H168.439V480.436H166.566V484.114ZM172.754 477.162C172.361 477.162 172.051 477.055 171.826 476.841C171.601 476.627 171.489 476.335 171.489 475.964C171.489 475.581 171.601 475.283 171.826 475.069C172.051 474.856 172.361 474.749 172.754 474.749C173.148 474.749 173.458 474.856 173.683 475.069C173.908 475.283 174.02 475.581 174.02 475.964C174.02 476.324 173.902 476.616 173.666 476.841C173.441 477.055 173.137 477.162 172.754 477.162ZM171.691 487V478.562H173.784V487H171.691ZM178.987 480.925C178.987 481.161 179.117 481.341 179.375 481.465C179.645 481.577 180.067 481.696 180.641 481.819C181.293 481.954 181.839 482.106 182.278 482.275C182.717 482.444 183.093 482.714 183.408 483.085C183.735 483.445 183.898 483.934 183.898 484.553C183.898 485.104 183.729 485.582 183.392 485.987C183.065 486.392 182.627 486.702 182.075 486.916C181.524 487.118 180.922 487.219 180.27 487.219C179.381 487.219 178.616 487.051 177.975 486.713C177.345 486.376 176.878 485.892 176.574 485.262L178.295 484.367C178.599 485.144 179.257 485.532 180.27 485.532C180.708 485.532 181.085 485.447 181.4 485.279C181.715 485.11 181.873 484.868 181.873 484.553C181.873 484.283 181.727 484.086 181.434 483.962C181.153 483.827 180.692 483.681 180.05 483.524C179.387 483.366 178.847 483.209 178.43 483.051C178.014 482.894 177.654 482.652 177.35 482.326C177.047 481.988 176.895 481.544 176.895 480.992C176.895 480.452 177.047 479.986 177.35 479.592C177.654 479.187 178.065 478.877 178.582 478.664C179.1 478.45 179.668 478.343 180.287 478.343C181.018 478.343 181.67 478.495 182.244 478.799C182.829 479.102 183.279 479.536 183.594 480.098L181.89 480.959C181.597 480.329 181.063 480.014 180.287 480.014C179.893 480.014 179.578 480.098 179.342 480.267C179.105 480.424 178.987 480.644 178.987 480.925ZM189.628 484.114C189.628 484.497 189.718 484.761 189.898 484.907C190.078 485.054 190.365 485.127 190.759 485.127C190.995 485.127 191.254 485.11 191.535 485.076V487C191.006 487.056 190.568 487.084 190.219 487.084C189.319 487.084 188.644 486.882 188.194 486.477C187.755 486.061 187.536 485.318 187.536 484.249V480.436H185.95V478.562H187.536V476.487L189.628 475.778V478.562H191.501V480.436H189.628V484.114ZM205.43 476.959C205.149 476.926 204.896 476.909 204.671 476.909C204.277 476.909 203.99 476.982 203.81 477.128C203.63 477.274 203.54 477.544 203.54 477.938V478.562H205.413V480.436H203.54V487H201.447V480.436H200.047V478.562H201.447V477.803C201.447 476.734 201.667 475.997 202.106 475.592C202.544 475.176 203.208 474.968 204.097 474.968C204.446 474.968 204.89 474.996 205.43 475.052V476.959ZM211.809 487.236C211.011 487.236 210.268 487.039 209.582 486.646C208.907 486.241 208.367 485.701 207.962 485.026C207.568 484.339 207.371 483.597 207.371 482.798C207.371 481.999 207.568 481.262 207.962 480.587C208.367 479.901 208.907 479.361 209.582 478.967C210.268 478.562 211.011 478.36 211.809 478.36C212.608 478.36 213.345 478.562 214.02 478.967C214.706 479.361 215.246 479.901 215.64 480.587C216.045 481.262 216.247 481.999 216.247 482.798C216.247 483.597 216.045 484.339 215.64 485.026C215.246 485.701 214.706 486.241 214.02 486.646C213.345 487.039 212.608 487.236 211.809 487.236ZM211.792 485.144C212.22 485.144 212.614 485.042 212.974 484.84C213.334 484.626 213.621 484.339 213.834 483.979C214.048 483.619 214.155 483.226 214.155 482.798C214.155 482.371 214.048 481.977 213.834 481.617C213.621 481.257 213.334 480.97 212.974 480.756C212.614 480.542 212.22 480.436 211.792 480.436C211.365 480.436 210.971 480.542 210.611 480.756C210.251 480.97 209.964 481.257 209.751 481.617C209.548 481.977 209.447 482.371 209.447 482.798C209.447 483.226 209.548 483.619 209.751 483.979C209.964 484.339 210.251 484.626 210.611 484.84C210.971 485.042 211.365 485.144 211.792 485.144ZM224.114 478.394L223.962 480.368C223.894 480.346 223.776 480.334 223.607 480.334C222.91 480.334 222.331 480.537 221.869 480.942C221.419 481.347 221.194 481.898 221.194 482.596V487H219.102V478.562H221.194V479.98C221.386 479.53 221.712 479.153 222.173 478.849C222.634 478.546 223.191 478.394 223.844 478.394H224.114ZM239.499 478.562H241.591V487H239.499V486.173C239.105 486.511 238.672 486.775 238.2 486.966C237.738 487.146 237.249 487.236 236.731 487.236C235.876 487.236 235.128 487.045 234.487 486.662C233.846 486.28 233.351 485.751 233.002 485.076C232.665 484.401 232.496 483.642 232.496 482.798C232.496 481.954 232.665 481.195 233.002 480.52C233.351 479.845 233.846 479.316 234.487 478.934C235.128 478.54 235.876 478.343 236.731 478.343C237.249 478.343 237.738 478.439 238.2 478.63C238.672 478.81 239.105 479.069 239.499 479.406V478.562ZM237.001 485.228C237.463 485.228 237.879 485.127 238.25 484.924C238.633 484.711 238.931 484.418 239.145 484.047C239.37 483.676 239.482 483.254 239.482 482.781C239.482 482.072 239.24 481.493 238.756 481.043C238.284 480.593 237.699 480.368 237.001 480.368C236.293 480.368 235.708 480.599 235.246 481.06C234.796 481.51 234.571 482.089 234.571 482.798C234.571 483.507 234.796 484.092 235.246 484.553C235.708 485.003 236.293 485.228 237.001 485.228ZM250.274 478.394L250.123 480.368C250.055 480.346 249.937 480.334 249.768 480.334C249.071 480.334 248.491 480.537 248.03 480.942C247.58 481.347 247.355 481.898 247.355 482.596V487H245.263V478.562H247.355V479.98C247.546 479.53 247.873 479.153 248.334 478.849C248.795 478.546 249.352 478.394 250.004 478.394H250.274ZM256.556 484.114C256.556 484.497 256.646 484.761 256.826 484.907C257.006 485.054 257.293 485.127 257.687 485.127C257.923 485.127 258.182 485.11 258.463 485.076V487C257.934 487.056 257.496 487.084 257.147 487.084C256.247 487.084 255.572 486.882 255.122 486.477C254.683 486.061 254.464 485.318 254.464 484.249V480.436H252.877V478.562H254.464V476.487L256.556 475.778V478.562H258.429V480.436H256.556V484.114ZM262.745 477.162C262.351 477.162 262.042 477.055 261.817 476.841C261.592 476.627 261.479 476.335 261.479 475.964C261.479 475.581 261.592 475.283 261.817 475.069C262.042 474.856 262.351 474.749 262.745 474.749C263.139 474.749 263.448 474.856 263.673 475.069C263.898 475.283 264.011 475.581 264.011 475.964C264.011 476.324 263.892 476.616 263.656 476.841C263.431 477.055 263.127 477.162 262.745 477.162ZM261.682 487V478.562H263.774V487H261.682ZM268.978 480.925C268.978 481.161 269.107 481.341 269.366 481.465C269.636 481.577 270.058 481.696 270.632 481.819C271.284 481.954 271.83 482.106 272.268 482.275C272.707 482.444 273.084 482.714 273.399 483.085C273.725 483.445 273.888 483.934 273.888 484.553C273.888 485.104 273.72 485.582 273.382 485.987C273.056 486.392 272.617 486.702 272.066 486.916C271.515 487.118 270.913 487.219 270.26 487.219C269.372 487.219 268.607 487.051 267.965 486.713C267.335 486.376 266.868 485.892 266.565 485.262L268.286 484.367C268.59 485.144 269.248 485.532 270.26 485.532C270.699 485.532 271.076 485.447 271.391 485.279C271.706 485.11 271.863 484.868 271.863 484.553C271.863 484.283 271.717 484.086 271.425 483.962C271.143 483.827 270.682 483.681 270.041 483.524C269.377 483.366 268.837 483.209 268.421 483.051C268.005 482.894 267.645 482.652 267.341 482.326C267.037 481.988 266.885 481.544 266.885 480.992C266.885 480.452 267.037 479.986 267.341 479.592C267.645 479.187 268.055 478.877 268.573 478.664C269.09 478.45 269.658 478.343 270.277 478.343C271.008 478.343 271.661 478.495 272.235 478.799C272.82 479.102 273.27 479.536 273.585 480.098L271.88 480.959C271.588 480.329 271.053 480.014 270.277 480.014C269.883 480.014 269.568 480.098 269.332 480.267C269.096 480.424 268.978 480.644 268.978 480.925ZM279.619 484.114C279.619 484.497 279.709 484.761 279.889 484.907C280.069 485.054 280.356 485.127 280.75 485.127C280.986 485.127 281.245 485.11 281.526 485.076V487C280.997 487.056 280.558 487.084 280.21 487.084C279.31 487.084 278.635 486.882 278.185 486.477C277.746 486.061 277.526 485.318 277.526 484.249V480.436H275.94V478.562H277.526V476.487L279.619 475.778V478.562H281.492V480.436H279.619V484.114ZM286.27 480.925C286.27 481.161 286.399 481.341 286.658 481.465C286.928 481.577 287.35 481.696 287.924 481.819C288.576 481.954 289.122 482.106 289.561 482.275C289.999 482.444 290.376 482.714 290.691 483.085C291.018 483.445 291.181 483.934 291.181 484.553C291.181 485.104 291.012 485.582 290.674 485.987C290.348 486.392 289.909 486.702 289.358 486.916C288.807 487.118 288.205 487.219 287.553 487.219C286.664 487.219 285.899 487.051 285.258 486.713C284.628 486.376 284.161 485.892 283.857 485.262L285.578 484.367C285.882 485.144 286.54 485.532 287.553 485.532C287.991 485.532 288.368 485.447 288.683 485.279C288.998 485.11 289.156 484.868 289.156 484.553C289.156 484.283 289.009 484.086 288.717 483.962C288.436 483.827 287.974 483.681 287.333 483.524C286.669 483.366 286.129 483.209 285.713 483.051C285.297 482.894 284.937 482.652 284.633 482.326C284.329 481.988 284.178 481.544 284.178 480.992C284.178 480.452 284.329 479.986 284.633 479.592C284.937 479.187 285.348 478.877 285.865 478.664C286.383 478.45 286.951 478.343 287.569 478.343C288.301 478.343 288.953 478.495 289.527 478.799C290.112 479.102 290.562 479.536 290.877 480.098L289.173 480.959C288.88 480.329 288.346 480.014 287.569 480.014C287.176 480.014 286.861 480.098 286.624 480.267C286.388 480.424 286.27 480.644 286.27 480.925Z" fill="white"/>
<path d="M69.6638 448.534C69.6638 450.319 70.0838 451.552 70.9238 452.235C71.7638 452.917 73.1025 453.259 74.94 453.259C76.0425 453.259 77.25 453.18 78.5625 453.022V462C76.095 462.263 74.0475 462.394 72.42 462.394C68.22 462.394 65.07 461.449 62.97 459.559C60.9225 457.616 59.8988 454.151 59.8988 449.164V431.366H52.4963V422.625H59.8988V412.939L69.6638 409.631V422.625H78.405V431.366H69.6638V448.534ZM115.98 422.625H125.745V462H115.98V458.141C114.142 459.716 112.121 460.95 109.916 461.842C107.764 462.683 105.48 463.103 103.065 463.103C99.0748 463.103 95.5836 462.21 92.5911 460.425C89.5986 458.64 87.2886 456.172 85.6611 453.022C84.0861 449.872 83.2986 446.329 83.2986 442.391C83.2986 438.454 84.0861 434.91 85.6611 431.76C87.2886 428.61 89.5986 426.142 92.5911 424.357C95.5836 422.52 99.0748 421.601 103.065 421.601C105.48 421.601 107.764 422.047 109.916 422.94C112.121 423.78 114.142 424.987 115.98 426.562V422.625ZM104.325 453.731C106.477 453.731 108.42 453.259 110.152 452.314C111.937 451.316 113.329 449.951 114.326 448.219C115.376 446.486 115.901 444.517 115.901 442.312C115.901 439.005 114.772 436.301 112.515 434.201C110.31 432.101 107.58 431.051 104.325 431.051C101.017 431.051 98.2873 432.127 96.1348 434.28C94.0348 436.38 92.9848 439.084 92.9848 442.391C92.9848 445.699 94.0348 448.429 96.1348 450.581C98.2873 452.681 101.017 453.731 104.325 453.731ZM153.681 421.601C157.461 421.601 160.847 422.546 163.84 424.436C166.885 426.274 169.247 428.767 170.927 431.917C172.607 435.067 173.447 438.559 173.447 442.391C173.447 443.651 173.342 444.806 173.132 445.856H142.735C143.522 448.639 144.913 450.817 146.908 452.392C148.903 453.915 151.45 454.676 154.547 454.676C156.437 454.676 158.248 454.256 159.981 453.416C161.766 452.576 163.105 451.5 163.997 450.187L171.478 454.597C169.641 457.327 167.252 459.427 164.312 460.897C161.425 462.315 158.091 463.024 154.311 463.024C150.111 463.024 146.383 462.131 143.128 460.346C139.873 458.561 137.353 456.094 135.568 452.944C133.836 449.794 132.97 446.25 132.97 442.312C132.97 438.427 133.836 434.91 135.568 431.76C137.353 428.61 139.821 426.142 142.971 424.357C146.121 422.52 149.691 421.601 153.681 421.601ZM164.312 438.217C163.892 435.697 162.711 433.729 160.768 432.311C158.878 430.841 156.49 430.106 153.602 430.106C151.607 430.106 149.77 430.474 148.09 431.209C146.462 431.944 145.15 432.941 144.152 434.201C143.155 435.461 142.63 436.8 142.577 438.217H164.312ZM210.416 406.875H220.181V462H210.416V458.22C208.631 459.795 206.636 461.002 204.431 461.842C202.226 462.683 199.943 463.103 197.58 463.103C193.59 463.103 190.099 462.21 187.106 460.425C184.114 458.64 181.804 456.172 180.176 453.022C178.601 449.872 177.814 446.329 177.814 442.391C177.814 438.454 178.601 434.91 180.176 431.76C181.804 428.61 184.114 426.142 187.106 424.357C190.099 422.52 193.59 421.601 197.58 421.601C199.943 421.601 202.2 422.047 204.353 422.94C206.558 423.78 208.579 424.961 210.416 426.484V406.875ZM198.84 453.731C200.993 453.731 202.935 453.259 204.668 452.314C206.453 451.316 207.844 449.951 208.841 448.219C209.891 446.486 210.416 444.517 210.416 442.312C210.416 439.005 209.288 436.301 207.03 434.201C204.825 432.101 202.095 431.051 198.84 431.051C195.533 431.051 192.803 432.127 190.65 434.28C188.55 436.38 187.5 439.084 187.5 442.391C187.5 445.699 188.55 448.429 190.65 450.581C192.803 452.681 195.533 453.731 198.84 453.731ZM259.56 422.625H269.325V462H259.56V458.141C257.723 459.716 255.701 460.95 253.496 461.842C251.344 462.683 249.06 463.103 246.645 463.103C242.655 463.103 239.164 462.21 236.171 460.425C233.179 458.64 230.869 456.172 229.241 453.022C227.666 449.872 226.879 446.329 226.879 442.391C226.879 438.454 227.666 434.91 229.241 431.76C230.869 428.61 233.179 426.142 236.171 424.357C239.164 422.52 242.655 421.601 246.645 421.601C249.06 421.601 251.344 422.047 253.496 422.94C255.701 423.78 257.723 424.987 259.56 426.562V422.625ZM247.905 453.731C250.058 453.731 252 453.259 253.733 452.314C255.518 451.316 256.909 449.951 257.906 448.219C258.956 446.486 259.481 444.517 259.481 442.312C259.481 439.005 258.353 436.301 256.095 434.201C253.89 432.101 251.16 431.051 247.905 431.051C244.598 431.051 241.868 432.127 239.715 434.28C237.615 436.38 236.565 439.084 236.565 442.391C236.565 445.699 237.615 448.429 239.715 450.581C241.868 452.681 244.598 453.731 247.905 453.731ZM287.982 450.896C287.982 451.736 288.192 452.34 288.612 452.707C289.032 453.075 289.688 453.259 290.58 453.259C291.263 453.259 292.077 453.18 293.022 453.022V462C291.079 462.315 289.268 462.473 287.588 462.473C284.543 462.473 282.207 461.685 280.579 460.11C279.004 458.482 278.217 455.621 278.217 451.526V406.875H287.982V450.896Z" fill="white"/>
</svg>
