<svg width="38" height="41" viewBox="0 0 38 41" fill="none" xmlns="http://www.w3.org/2000/svg">
<path d="M10.4139 0.88612C9.52388 1.71252 8.40228 5.6366 7.97836 6.94759C7.3162 8.99545 6.76059 10.6616 5.92236 12.6369C5.25355 14.212 4.97906 16.7482 3.5386 17.7684C2.60123 18.4328 0.919586 18.6932 0.680618 20.1144C0.429077 21.6111 0.817497 23.1559 1.66757 24.3892C2.00049 24.8723 2.99704 25.7179 3.07621 26.2181C3.37214 28.0832 2.02417 30.0652 2.30308 31.9592C2.49914 33.2939 3.24489 33.9279 4.57586 33.3641C4.97462 33.1955 5.32383 32.6391 5.86243 32.9106C6.62668 33.7281 5.73888 34.815 6.66811 35.574C7.10387 35.9306 7.63656 35.9484 8.17886 35.8056C8.92535 35.6095 9.26715 34.4532 10.1757 34.7262C10.5056 34.8253 12.4832 37.1876 13.0344 37.6522C15.1444 39.4323 18.2584 40.7958 21.0231 39.9642C22.2764 39.5876 24.2126 37.9903 25.1884 37.0744C25.7396 36.5573 27.3103 34.5782 27.8429 34.4073C28.9912 34.0396 29.0326 35.5607 29.4647 36.0372C29.8693 36.484 30.5322 36.484 31.0139 36.1888C32.0674 35.543 31.7056 33.3597 32.202 33.2088C32.8664 33.0061 33.5227 35.0709 34.8211 34.1291C35.5579 33.5942 35.5461 32.227 35.4914 31.4058C35.3604 29.4541 34.0361 27.3855 35.2746 25.5367C36.3888 23.8728 37.6953 23.4622 37.1952 21.037C36.8771 19.4937 35.4566 19.0409 34.5577 18.0081C33.4198 16.7008 32.6134 14.5205 31.8824 12.9373C30.5574 10.0653 30.3946 7.34932 29.2397 4.48246C28.9949 3.87505 27.8992 1.44987 27.5522 1.08292C27.0439 0.545796 26.4913 0.503626 25.889 0.910535C24.8888 1.58748 23.6858 5.2763 23.0481 6.50961C22.6123 7.35228 21.9923 8.58559 20.9625 8.70248C20.122 8.79792 16.8519 8.81049 16.158 8.53084C15.2317 8.15796 14.702 5.99542 14.3306 5.15571C14.0864 4.60453 13.7076 4.12068 13.4776 3.5806C13.1358 2.77714 13.0714 1.75321 12.5047 1.08514C11.938 0.417065 11.0886 0.258 10.4132 0.884641L10.4139 0.88612ZM26.6015 5.60479C27.6913 5.87483 28.1374 8.87116 27.9598 9.79817C27.7904 10.6845 26.3973 9.81075 25.9179 9.53257C24.8414 8.90667 24.7896 8.94293 25.1033 7.63934C25.2424 7.063 25.8557 5.41983 26.6015 5.60405V5.60479ZM11.9646 5.8445C12.3493 6.21293 12.9108 8.40211 12.7503 8.93997C12.4973 9.78708 10.0839 11.03 9.81833 10.1252C9.60229 9.392 10.1283 6.61392 10.6573 6.04055C10.9562 5.71724 11.6287 5.52267 11.9646 5.8445ZM21.7134 28.5789C21.6483 25.6906 23.0259 20.1011 26.1147 19.0491C28.5473 18.2205 30.0565 20.8077 30.2629 22.8733C30.5426 25.6691 29.7983 28.2008 28.1263 30.4181C26.4617 32.6243 23.4476 36.3375 21.0246 37.5405C17.941 39.072 15.1488 37.3711 13.2179 34.9252C10.3776 31.3274 7.22594 27.6548 7.59068 22.7394C7.81781 19.6794 10.4442 16.9317 13.0936 19.7956C15.103 21.9677 15.9612 25.7002 16.1595 28.5789C16.249 28.6832 17.4083 27.8805 17.6295 27.7947C19.0056 27.2583 19.8535 27.5979 21.0579 28.2519C21.2754 28.3703 21.3849 28.6618 21.7127 28.5789H21.7134Z" fill="white"/>
<path d="M21.7135 28.5792C21.3857 28.662 21.2762 28.3705 21.0587 28.2522C19.8543 27.5982 19.0064 27.2586 17.6303 27.795C17.4091 27.8808 16.2498 28.6842 16.1603 28.5792C15.962 25.7005 15.1045 21.968 13.0944 19.7958C10.445 16.9319 7.81863 19.6797 7.5915 22.7397C7.22602 27.6551 10.3785 31.3277 13.2187 34.9255C15.1497 37.3714 17.9411 39.0723 21.0254 37.5408C23.4484 36.3378 26.4625 32.6253 28.1271 30.4184C29.7999 28.2011 30.5434 25.6694 30.2638 22.8736C30.0573 20.8079 28.5481 18.2207 26.1155 19.0494C23.0267 20.1014 21.6491 25.6909 21.7142 28.5792H21.7135ZM25.2173 21.203C25.9476 21.314 26.1932 23.1821 26.2265 23.7858C26.2679 24.5338 26.1739 27.5612 25.1308 27.61C24.3429 27.6462 24.0713 26.1089 24.0247 25.5222C23.9626 24.732 23.862 20.9973 25.2173 21.203ZM12.4863 21.2023C12.7141 21.2452 12.8258 21.3806 12.9457 21.5626C13.593 22.5429 13.5782 26.1607 12.9442 27.1602C12.4063 28.008 11.8219 27.5523 11.5259 26.794C11.0636 25.6102 11.0894 22.9549 11.6251 21.7986C11.8019 21.4168 11.9928 21.1091 12.4863 21.2023Z" fill="black"/>
<path d="M11.9648 5.84453C11.6282 5.5227 10.9564 5.71728 10.6575 6.04059C10.1278 6.61396 9.60249 9.39204 9.81852 10.1252C10.0849 11.03 12.4975 9.78712 12.7505 8.94C12.911 8.40214 12.3495 6.21297 11.9648 5.84453Z" fill="black"/>
<path d="M26.6016 5.6049C25.8558 5.41994 25.2425 7.06311 25.1034 7.64019C24.789 8.94378 24.8415 8.90752 25.9179 9.53342C26.3974 9.81234 27.7905 10.6853 27.9599 9.79902C28.1375 8.87127 27.6913 5.87494 26.6016 5.60564V5.6049Z" fill="black"/>
<path d="M12.4864 21.2018C11.9922 21.1078 11.802 21.4156 11.6252 21.7981C11.0888 22.9544 11.0637 25.6104 11.5261 26.7934C11.822 27.5518 12.4065 28.0075 12.9443 27.1596C13.5791 26.1601 13.5939 22.5423 12.9458 21.5621C12.826 21.3801 12.7143 21.2454 12.4864 21.2018Z" fill="white"/>
<path d="M25.2175 21.203C23.8621 20.9973 23.962 24.732 24.0249 25.5221C24.0715 26.1088 24.343 27.6462 25.1309 27.6099C26.1748 27.5618 26.2681 24.5337 26.2266 23.7857C26.1933 23.1828 25.9477 21.3139 25.2175 21.203Z" fill="white"/>
<path d="M21.1356 31.4567L19.6278 33.822C19.4014 34.0158 19.0966 34.5204 18.7725 34.4694L16.6233 31.7438L16.7964 31.4567H21.1363H21.1356Z" fill="white"/>
</svg>
