<svg width="425" height="448" viewBox="0 0 425 448" fill="none" xmlns="http://www.w3.org/2000/svg">
<path d="M282.041 13.1353L22.6705 142.385L29.6107 328.025L99.8807 406.095L129.551 426.015L163.201 439.925L288.121 435.585L368.791 387.015L386.141 373.135L366.191 354.045H303.731L276.841 332.365L236.941 297.665L225.661 290.725L192.691 285.515L191.831 263.835L190.091 200.505L199.631 80.7953L282.041 13.1353Z" fill="black"/>
<path d="M144.721 248.215L144.701 254.735L140.411 255.755C148.231 266.015 149.001 279.315 146.861 291.565L139.431 276.265C129.561 266.515 109.351 270.145 107.821 285.075C96.4707 279.285 74.2306 283.385 77.4806 264.575C79.4706 253.035 99.5406 252.465 98.9306 264.485C98.4206 274.505 86.1107 279.905 88.3607 267.705L92.6605 266.675C83.4505 255.705 79.0206 281.225 95.4706 275.955C102.911 273.575 102.591 263.005 100.291 256.855C89.0807 247.635 71.9106 252.755 72.9606 268.835C73.3306 274.515 77.4906 275.735 77.5006 280.725C64.7806 284.165 63.0606 265.935 65.0106 256.295C69.5406 233.965 100.781 234.935 108.361 255.295C109.951 259.575 108.621 266.735 112.171 267.705C118.241 253.585 105.781 245.625 97.0207 237.395C110.411 238.125 111.721 223.285 123.061 218.945C111.071 214.815 109.681 230.965 99.3207 234.225C62.9207 245.675 54.8107 172.915 94.8407 187.505V183.205C62.9807 171.745 56.5806 211.385 73.1706 230.845C57.0406 234.005 50.9605 251.415 54.1605 266.175C55.8705 274.085 63.9806 278.855 57.9806 289.425C54.5106 289.505 51.2005 286.185 47.6405 287.725C45.4805 288.655 25.4305 317.445 40.6405 315.425L44.9306 296.945C67.1006 291.155 81.2107 272.305 104.601 289.425C132.531 309.865 116.101 347.735 120.961 376.865C98.1506 384.985 107.531 408.595 120.871 421.645C67.8908 396.825 20.7207 335.195 7.04068 278.575C-40.7693 80.6152 164.241 -54.8147 339.811 21.6853L385.371 48.7253C374.581 47.5853 364.911 40.0653 354.601 37.2553C293.751 20.6453 233.011 54.9153 207.231 110.165C203.911 117.275 192.421 148.015 192.421 153.895V207.015C178.071 200.725 181.291 184.285 169.331 176.995C158.361 170.305 150.871 172.795 140.411 178.845C140.861 165.495 121.231 159.595 114.371 170.135C115.551 171.055 136.521 162.065 137.911 178.135C138.091 180.235 121.161 201.995 127.361 211.355L114.381 202.695V215.695L123.101 212.355C125.871 214.095 133.651 234.855 133.801 238.665C134.011 243.895 128.581 255.155 124.101 248.245V239.485C134.481 240.045 129.421 229.265 123.071 226.545C120.611 233.235 114.011 256.565 126.201 256.895C136.131 257.165 135.161 242.785 144.731 248.225C142.061 243.995 139.931 242.705 142.551 237.385L136.081 241.715C141.291 222.465 130.261 185.225 162.631 190.235C164.541 190.525 169.161 191.175 168.571 193.995C161.401 194.105 152.441 195.355 149.071 202.665C175.041 189.125 196.941 206.875 192.451 235.205C216.971 212.125 208.641 257.115 229.361 251.635C243.141 247.985 239.691 225.165 227.161 236.295L231.461 241.695C214.641 240.345 221.821 219.565 240.241 225.355C254.761 229.925 250.261 254.435 238.811 260.985C224.941 268.925 214.501 255.365 200.471 259.525C192.421 261.905 194.151 272.825 187.041 274.285C168.701 278.045 153.441 262.045 144.731 248.215H144.721ZM196.751 16.2253C191.511 16.1653 189.381 23.2553 182.151 25.8253C181.591 45.7653 205.011 45.7653 205.211 26.1053C204.361 22.1653 193.711 24.8153 196.741 16.2253H196.751ZM235.761 48.7353C237.241 38.0853 224.661 34.5653 217.191 39.9253C208.271 46.3253 213.831 61.9853 218.431 57.4053C212.231 46.6653 218.551 38.3453 230.101 42.5053C233.901 43.8753 232.081 49.1353 235.751 48.7453L235.761 48.7353ZM138.231 118.105C182.851 113.465 166.661 44.5153 123.221 63.0153C118.461 65.0453 114.671 70.7053 110.621 72.0853C104.911 74.0353 95.0008 70.6753 94.8808 81.2653L107.871 76.9553C104.441 84.0953 101.471 92.9253 104.641 100.795L109.561 81.8753C131.941 35.8253 186.241 87.0153 150.171 111.635C146.131 114.385 139.681 114.115 138.241 118.095L138.231 118.105ZM189.931 66.5053C189.341 65.4953 182.751 64.2353 183.691 59.5853C172.021 65.0253 173.651 67.3753 175.091 79.0953H188.061C186.891 75.6653 190.991 68.3253 189.931 66.5053ZM138.241 96.4453C147.271 92.6453 139.571 80.2453 132.701 79.0753C118.861 76.7253 111.691 90.7253 114.381 102.935C122.131 104.445 116.931 98.0853 117.691 93.9453C119.561 83.6553 126.491 81.2253 136.201 84.3753L138.241 96.4353V96.4453ZM99.1906 89.9153C84.9206 69.3653 57.1105 104.265 73.1505 118.125C72.8805 108.835 71.2706 90.0253 84.0006 91.0153C80.9206 94.7453 76.3406 99.2553 75.4406 104.135C74.9306 106.885 73.6006 119.185 77.4806 120.285C74.8906 105.355 83.6706 91.1253 99.1806 89.9153H99.1906ZM138.311 139.725C140.021 120.205 130.081 99.0953 107.831 108.365C104.571 109.725 98.6706 112.665 102.431 115.955C117.631 102.025 135.181 113.015 135.321 131.895C135.411 144.315 125.711 137.255 125.231 146.325C131.101 142.705 139.721 139.185 146.021 143.965C148.571 145.905 147.721 150.975 151.211 150.655C152.161 141.915 145.991 139.295 138.321 139.735L138.311 139.725ZM92.0006 131.825C81.5206 122.275 60.7207 128.705 62.3507 144.135C69.9707 136.145 76.0507 124.315 88.5207 134.215C93.0607 137.825 92.7106 144.185 97.0006 146.295C97.7106 141.495 95.5006 135.005 92.0006 131.825ZM131.691 159.315C131.601 143.615 117.191 150.145 108.701 150.425C95.4306 150.865 86.8007 146.025 84.0307 165.815C90.4407 159.355 99.6506 144.245 106.731 157.155C115.511 149.895 124.081 151.535 131.691 159.305V159.315ZM34.1308 172.315C27.2608 179.415 23.2706 172.445 22.2106 172.475C20.5806 172.525 17.3306 182.225 12.4606 181.055C17.8506 183.935 13.9906 193.215 14.7206 193.945C15.1906 194.415 18.1807 193.455 19.2907 194.225C21.1807 195.555 21.5506 198.265 22.4406 198.325C29.9506 198.795 33.9805 191.885 40.6605 191.825L36.9606 186.425C45.0506 178.725 32.0505 181.855 34.1405 172.325L34.1308 172.315ZM123.021 193.995C122.071 173.705 100.661 186.755 99.5807 199.985C98.8607 208.775 113.621 227.745 86.5006 219.705L86.2006 207.015C94.7106 204.395 91.0006 215.675 96.9906 208.105C74.4206 193.345 77.2908 234.985 101.381 223.285C112.441 217.915 100.861 204.145 107.701 193.285C109.421 190.555 115.251 190.275 117.651 187.545L123.021 194.005V193.995ZM156.071 239.025C171.091 254.025 191.401 222.975 172.851 214.635C156.651 207.345 146.881 229.845 156.071 239.025ZM42.8307 274.175C42.4707 261.085 35.3807 251.115 21.3207 257.095L21.1605 263.385L30.6107 259.165C42.4107 270.785 32.8405 268.845 30.9005 271.955C28.6205 275.615 30.6106 279.825 29.7606 283.565C29.3806 285.235 25.9407 284.925 25.5307 286.545C24.4107 290.965 24.5706 299.245 28.7606 302.385L31.9606 293.715L27.6107 292.625C32.6807 284.885 31.0507 273.445 42.8407 274.175H42.8307ZM89.8507 329.975C96.1307 322.275 91.6407 310.535 83.8507 305.845C56.4407 289.355 33.9007 340.575 64.6007 359.765C72.7807 364.885 97.7507 366.445 103.531 356.635C88.0407 357.515 66.6306 357.915 64.4606 338.225C62.8406 323.575 68.0006 315.085 83.6906 317.915L86.0807 327.105L79.6806 330.635C80.4106 336.685 87.2207 333.185 89.8507 329.955V329.975ZM103.551 376.155L89.8507 369.905C74.9707 373.375 79.2007 393.575 91.5807 393.555C92.1907 393.555 93.7607 386.125 101.281 389.085L103.551 376.155Z" fill="white"/>
<path d="M381.041 382.635C319.081 442.855 230.73 463.065 147.91 434.725L129.551 426.015C137.931 423.515 142.17 430.055 148.41 432.055C164.26 437.135 190.261 442.015 203.261 429.245C223.871 409.015 206.81 367.915 176.39 376.195C154.58 382.125 166.87 406.865 172.9 402.125C167.97 393.895 173.981 387.905 182.471 389.115C206.861 392.595 199.531 435.845 163.271 430.185C157.561 429.295 145.191 423.925 149.031 417.335L142.511 412.995L138.221 419.475C116.521 385.335 149.241 338.525 189.301 354.285C201.591 359.125 202.421 376.695 220.571 371.805C221.261 386.605 212.41 375.555 211.92 376.135C211.8 387.665 226.78 381.835 224.68 373.295C222.73 365.345 212.081 368.975 207.571 366.365C205.371 365.095 201.621 356.825 196.621 353.465C180.121 342.385 154.141 347.555 140.381 360.945C142.671 348.645 147.681 338.975 158.711 332.685C174.141 323.885 179.611 324.525 195.531 321.805C202.771 320.575 207.061 314.495 216.201 318.705C219.751 320.345 225.181 329.735 228.131 329.965C230.101 330.125 236.871 325.215 241.471 324.785C253.541 323.665 249.411 329.755 252.011 334.885C252.551 335.945 271.261 355.215 268.221 343.625C263.061 343.955 263.57 341.865 263.93 337.095C268.22 336.995 271.67 338.805 270.42 332.765C257.38 337.415 258.201 329.045 252.071 324.015C244.531 317.815 234.561 322.145 227.111 326.255C226.121 318.105 215.981 313.025 208.571 313.155C203.391 313.245 200.181 316.665 195.511 317.475C179.981 320.185 171.741 321.545 156.821 328.655C139.271 337.025 142.4 348.935 136.68 362.665C135.61 365.225 132.131 364.925 131.711 366.805C129.631 376.125 129.981 390.175 129.471 399.965C125.591 398.385 127.101 387.275 127.211 383.615C127.381 378.355 129.69 372.495 129.42 368.635C129.1 363.925 124.951 360.695 125.061 353.485C125.261 340.345 136.861 320.255 148.231 313.565C154.511 309.865 162.531 309.215 169.111 306.255C176.841 302.775 181.28 292.785 194.41 298.195L192.361 311.065C198.041 312.045 199.491 305.235 203.241 303.485C212.081 299.355 214.101 307.475 220.521 311.085C219.491 294.775 200.161 303.035 199.081 302.245C194.561 298.955 197.581 290.405 180.481 293.795C174.201 295.035 172.871 300.985 168.551 303.205C165.321 304.865 157.391 303.995 151.781 306.305C144.911 309.135 139.951 315.855 133.841 319.755C134.631 309.055 144.02 303.235 149.89 295.715C152.55 292.305 157.311 281.535 158.021 281.085C160.231 279.695 175.221 280.975 180.251 280.555C183.941 280.245 190.011 276.675 191.361 276.875C194.301 277.315 194.81 285.675 202.15 287.185C217.74 290.385 217.661 281.095 219.791 280.595C229.191 278.385 236.31 295.255 242.17 301.385C290.79 352.315 364.631 369.345 424.321 326.265C416.601 349.645 397.881 366.205 380.981 382.635C385.711 357.435 346.95 356.265 344.18 377.405C343.31 384.025 344.881 391.165 352.801 391.285C332.721 375.665 365.231 355.125 374.621 370.565C378.101 376.285 373.671 383.755 380.991 382.635H381.041ZM294.011 359.195L284.571 350.155C281.631 354.445 281.15 357.385 275.15 356.825L274.68 368.375L284.221 373.745C288.971 372.595 296.301 363.445 294.021 359.195H294.011ZM248.771 360.955C250.051 347.175 212.001 356.915 218.461 363.125L231.451 358.815L227.121 365.275L235.841 364.055L239.031 376.125C245.421 370.665 241.211 363.115 240.131 356.635L248.771 360.955ZM163.691 363.665C155.481 355.365 140.941 367.625 148.841 377.415C157.221 387.795 173.671 373.755 163.691 363.665ZM359.341 380.465C362.131 398.635 336.621 397.795 335.521 381.385C335.111 375.285 341.151 372.335 338.771 367.465C324.031 383.145 341.371 408.225 360.471 393.505L361.511 378.295L352.871 382.635L359.341 380.475V380.465ZM331.16 406.475C330.5 378.945 296.281 363.025 279.131 388.045C269.451 402.165 269.811 425.425 288.881 430.355L279.16 417.325C290.56 428.755 304.711 429.135 318.021 420.425C324.591 416.125 330.401 410.295 326.861 402.155L331.15 406.465L331.16 406.475ZM231.461 415.165C269.181 430.735 278.621 378.165 240.131 380.485C241.871 385.065 251.121 381.645 254.241 386.935C256.151 390.185 255.971 401.195 254.851 404.955C251.421 416.565 234.871 405.425 230.301 412.915C227.521 417.465 229.191 424.455 235.781 423.795L231.461 415.155V415.165ZM246.611 426.025C234.961 419.885 232.291 439.885 243.831 440.755C249.971 441.225 253.581 437.805 257.461 433.575L244.701 434.455L242.271 429.215L246.611 426.025Z" fill="white"/>
<path d="M205.451 278.565L214.091 279.685C205.321 295.025 185.921 272.695 202.741 263.815C212.621 258.595 232.781 276.945 246.601 259.055C240.991 275.165 223.351 281.055 208.791 272.085L205.441 278.565H205.451Z" fill="black"/>
<path d="M131.681 315.405L129.521 302.425L125.231 306.735L125.201 294.825H131.711L125.181 287.245L120.811 293.705L110.041 289.355C130.661 255.935 148.431 290.995 131.691 315.405H131.681Z" fill="black"/>
<path d="M270.691 85.3753L285.641 85.6253C274.521 94.9953 272.641 90.7553 276.951 107.285L267.211 100.705L255.291 107.265L259.451 92.3253L246.621 85.6253L261.921 84.6453L267.211 70.4053L270.691 85.3753Z" fill="white"/>
<path d="M177.221 196.175C166.071 183.415 151.311 179.475 139.911 194.625L131.731 217.845C123.121 182.405 162.121 156.925 177.221 196.175Z" fill="black"/>
<path d="M188.081 432.475C211.741 415.445 205.911 376.715 174.011 384.825C171.091 382.695 176.901 380.745 178.421 380.545C212.621 376.035 218.191 424.245 188.081 432.475Z" fill="black"/>
<path d="M118.671 384.805L129.521 419.485C118.171 412.825 107.641 401.715 113.811 387.475L118.671 384.795V384.805Z" fill="black"/>
<path d="M60.1405 267.715C56.5105 268.275 57.8505 262.515 57.9105 260.075C58.2505 246.425 62.3206 239.645 74.2706 233.095C81.2106 237.775 70.8207 240.155 67.6307 243.765C61.9807 250.175 59.7405 259.235 60.1405 267.725V267.715Z" fill="black"/>
<path d="M89.8507 329.975C87.2207 333.205 80.4105 336.705 79.6805 330.655L86.0806 327.125L83.6905 317.935C68.0005 315.105 62.8405 323.595 64.4605 338.245C66.6305 357.935 88.0406 357.535 103.531 356.655C97.7506 366.465 72.7907 364.905 64.6007 359.785C33.9007 340.585 56.4407 289.365 83.8507 305.865C91.6407 310.555 96.1307 322.295 89.8507 329.995V329.975Z" fill="black"/>
<path d="M138.231 118.105C139.671 114.125 146.131 114.395 150.161 111.645C186.231 87.0253 131.931 35.8353 109.551 81.8853L104.631 100.805C101.461 92.9353 104.431 84.1053 107.861 76.9653L94.8707 81.2753C94.9807 70.6853 104.891 74.0453 110.611 72.0953C114.661 70.7153 118.461 65.0453 123.211 63.0253C166.651 44.5253 182.841 113.475 138.221 118.115L138.231 118.105Z" fill="black"/>
<path d="M34.1307 172.315C32.0507 181.845 45.0406 178.725 36.9506 186.415L40.6505 191.815C33.9705 191.865 29.9405 198.785 22.4305 198.315C21.5505 198.255 21.1706 195.545 19.2806 194.215C18.1806 193.435 15.1806 194.395 14.7106 193.935C13.9806 193.205 17.8406 183.935 12.4506 181.045C17.3206 182.225 20.5706 172.515 22.2006 172.465C23.2606 172.435 27.2407 179.405 34.1207 172.305L34.1307 172.315Z" fill="black"/>
<path d="M123.021 193.995L117.65 187.535C115.24 190.255 109.42 190.535 107.7 193.275C100.86 204.135 112.441 217.905 101.381 223.275C77.2806 234.975 74.4205 193.335 96.9905 208.095C91.0105 215.665 94.7205 204.385 86.2005 207.005L86.5005 219.695C113.631 227.735 98.8606 208.765 99.5806 199.975C100.661 186.745 122.071 173.695 123.021 193.985V193.995Z" fill="black"/>
<path d="M196.751 16.2252C193.721 24.8152 204.371 22.1652 205.221 26.1052C205.021 45.7652 181.601 45.7652 182.161 25.8252C189.391 23.2552 191.521 16.1652 196.761 16.2252H196.751Z" fill="black"/>
<path d="M103.551 376.155L101.281 389.085C93.7606 386.125 92.1806 393.555 91.5806 393.555C79.2006 393.575 74.9706 373.375 89.8506 369.905L103.551 376.155Z" fill="black"/>
<path d="M99.1905 89.9153C83.6805 91.1253 74.8906 105.355 77.4906 120.285C73.6106 119.185 74.9406 106.885 75.4506 104.135C76.3506 99.2553 80.9306 94.7453 84.0106 91.0153C71.2806 90.0253 72.8905 108.835 73.1605 118.125C57.1105 104.275 84.9306 69.3653 99.2006 89.9153H99.1905Z" fill="black"/>
<path d="M138.311 139.725C145.981 139.275 152.151 141.895 151.201 150.645C147.711 150.975 148.571 145.895 146.011 143.955C139.711 139.175 131.091 142.685 125.221 146.315C125.691 137.245 135.401 144.305 135.311 131.885C135.171 113.015 117.621 102.025 102.421 115.945C98.6706 112.655 104.571 109.715 107.821 108.355C130.061 99.0953 140.001 120.195 138.301 139.715L138.311 139.725Z" fill="black"/>
<path d="M42.8307 274.175C31.0407 273.455 32.6707 284.895 27.6007 292.625L31.9506 293.715L28.7506 302.385C24.5606 299.245 24.4106 290.965 25.5206 286.545C25.9306 284.925 29.3606 285.235 29.7506 283.565C30.6006 279.825 28.6105 275.615 30.8905 271.955C32.8305 268.845 42.4007 270.775 30.6007 259.165L21.1505 263.385L21.3107 257.095C35.3607 251.115 42.4607 261.085 42.8207 274.175H42.8307Z" fill="black"/>
<path d="M131.691 159.315C124.091 151.535 115.511 149.905 106.731 157.165C99.6506 144.255 90.4406 159.355 84.0306 165.825C86.7906 146.035 95.4306 150.875 108.701 150.435C117.191 150.155 131.601 143.625 131.691 159.325V159.315Z" fill="black"/>
<path d="M189.93 66.5052C190.99 68.3352 186.891 75.6652 188.061 79.1052H175.091C173.651 67.3852 172.02 65.0352 183.69 59.5852C182.75 64.2352 189.34 65.4852 189.93 66.5052Z" fill="black"/>
<path d="M138.241 96.4452L136.201 84.3852C126.491 81.2352 119.561 83.6552 117.691 93.9552C116.941 98.0852 122.131 104.455 114.381 102.945C111.691 90.7352 118.861 76.7352 132.701 79.0852C139.571 80.2452 147.271 92.6452 138.241 96.4552V96.4452Z" fill="black"/>
<path d="M92.0005 131.825C95.4905 135.005 97.7005 141.495 97.0005 146.295C92.7105 144.185 93.0605 137.825 88.5205 134.215C76.0505 124.315 69.9806 136.145 62.3506 144.135C60.7206 128.705 81.5205 122.265 92.0005 131.825Z" fill="black"/>
<path d="M235.761 48.7353C232.091 49.1253 233.911 43.8653 230.111 42.4953C218.561 38.3353 212.241 46.6553 218.441 57.3953C213.841 61.9753 208.281 46.3153 217.201 39.9153C224.661 34.5653 237.251 38.0753 235.771 48.7253L235.761 48.7353Z" fill="black"/>
<path d="M331.161 406.475L326.871 402.165C330.411 410.305 324.601 416.135 318.031 420.435C304.721 429.145 290.571 428.765 279.171 417.335L288.891 430.365C269.821 425.435 269.461 402.175 279.141 388.055C296.281 363.045 330.501 378.955 331.171 406.485L331.161 406.475ZM307.301 406.475C307.781 406.045 310.721 397.945 307.421 396.645C284.561 388.565 287.611 419.935 308.221 417.265C337.081 413.525 319.001 360.875 287.951 383.845C265.701 400.305 286.791 432.015 311.651 421.625C309.561 417.155 301.761 420.725 296.521 418.365C283.501 412.485 285.491 388.265 303.961 391.295C322.221 394.285 303.561 426.745 298.681 399.975C301.921 399.595 303.061 410.305 307.301 406.475Z" fill="black"/>
<path d="M231.461 415.165L235.781 423.805C229.191 424.455 227.521 417.465 230.301 412.925C234.871 405.435 251.421 416.575 254.851 404.965C255.961 401.195 256.151 390.195 254.241 386.945C251.121 381.645 241.871 385.075 240.131 380.495C278.621 378.165 269.181 430.745 231.461 415.175V415.165Z" fill="black"/>
<path d="M294.011 359.195C296.291 363.445 288.971 372.595 284.211 373.745L274.671 368.375L275.141 356.825C281.151 357.375 281.621 354.435 284.561 350.155L294.001 359.195H294.011Z" fill="black"/>
<path d="M248.771 360.955L240.131 356.635C241.201 363.115 245.421 370.655 239.031 376.125L235.841 364.055L227.121 365.275L231.451 358.815L218.461 363.125C212.001 356.925 250.051 347.185 248.771 360.955Z" fill="black"/>
<path d="M359.341 380.465L352.871 382.625L361.511 378.285L360.471 393.495C341.371 408.215 324.041 383.145 338.771 367.455C341.151 372.325 335.111 375.275 335.521 381.375C336.611 397.795 362.131 398.625 359.341 380.455V380.465Z" fill="black"/>
<path d="M163.691 363.665C173.671 373.755 157.211 387.785 148.841 377.415C140.941 367.635 155.481 355.365 163.691 363.665ZM162.071 365.295L151.461 365.515C146.181 381.135 165.181 384.385 162.071 365.295Z" fill="black"/>
<path d="M246.611 426.025L242.271 429.215L244.701 434.455L257.461 433.575C253.581 437.805 249.971 441.225 243.831 440.755C232.301 439.885 234.961 419.875 246.611 426.025Z" fill="black"/>
<path d="M156.071 239.025C146.871 229.845 156.641 207.345 172.851 214.635C191.401 222.985 171.101 254.035 156.071 239.025ZM161.281 218.155C156.191 219.855 153.621 236.985 165.321 237.575C183.301 238.475 179.331 212.125 161.281 218.155Z" fill="white"/>
<path d="M307.301 406.475C303.051 410.305 301.91 399.595 298.68 399.975C303.56 426.755 322.22 394.285 303.96 391.295C285.49 388.265 283.491 412.485 296.521 418.365C301.761 420.735 309.57 417.155 311.65 421.625C286.79 432.015 265.7 400.305 287.95 383.845C319 360.875 337.08 413.525 308.22 417.265C287.61 419.935 284.56 388.555 307.42 396.645C310.72 397.935 307.781 406.035 307.301 406.475Z" fill="black"/>
<path d="M162.071 365.295C165.181 384.385 146.181 381.135 151.461 365.515L162.071 365.295Z" fill="black"/>
<path d="M161.281 218.155C179.321 212.125 183.301 238.475 165.321 237.575C153.621 236.985 156.201 219.855 161.281 218.155Z" fill="black"/>
</svg>
